<svg class="headerArrowSVG" width="40" height="60" viewBox="0 0 40 60" fill="none" xmlns="http://www.w3.org/2000/svg">
<path d="M20.8838 59.6337L39.6338 40.8838C40.1221 40.3954 40.1221 39.6044 39.6338 39.1162C39.1454 38.6279 38.3544 38.6279 37.8662 39.1162L21.25 55.7325L21.25 1.25004C21.25 0.5591 20.6909 -8.44028e-07 19.9999 -8.7423e-07C19.309 -9.04432e-07 18.7499 0.5591 18.7499 1.25004L18.7499 55.7325L2.13378 39.1162C1.64546 38.6279 0.854452 38.6279 0.366251 39.1162C0.122149 39.3603 4.02272e-05 39.6802 4.02132e-05 40.0001C4.01992e-05 40.3199 0.122149 40.6397 0.366251 40.8839L19.1162 59.6339C19.6044 60.1221 20.3955 60.1221 20.8838 59.6337Z" fill="black"/>
</svg>
