<svg class="headerArrowSVG" width="40" height="60" viewBox="0 0 40 60" fill="none" xmlns="http://www.w3.org/2000/svg">
<path d="M20.8838 59.6337L39.6338 40.8838C40.1221 40.3954 40.1221 39.6044 39.6338 39.1162C39.1454 38.6279 38.3544 38.6279 37.8662 39.1162L21.25 55.7325L21.25 1.25004C21.25 0.5591 20.6909 -8.7177e-07 19.9999 -9.02965e-07C19.309 -9.34159e-07 18.7499 0.5591 18.7499 1.25004L18.7499 55.7325L2.13379 39.1162C1.64547 38.6279 0.854453 38.6279 0.36625 39.1162C0.122149 39.3603 3.94082e-05 39.6802 3.93946e-05 40.0001C3.93811e-05 40.3199 0.122149 40.6397 0.36625 40.8839L19.1162 59.6339C19.6044 60.1221 20.3955 60.1221 20.8838 59.6337Z" fill="white"/>
</svg>
