<svg width="105" height="99" viewBox="0 0 105 99" fill="none" xmlns="http://www.w3.org/2000/svg">
<mask id="path-1-inside-1" fill="white">
<path d="M94.0167 52.2039H73.2167C73.2167 57.8776 68.5367 62.5197 62.8167 62.5197H42.0167C36.2967 62.5197 31.6167 57.8776 31.6167 52.2039H10.8167L0.416748 77.9934V88.3092C0.416748 93.9829 5.09675 98.625 10.8167 98.625H94.0167C99.7367 98.625 104.417 93.9829 104.417 88.3092V77.9934L94.0167 52.2039ZM21.2167 88.3092C16.5887 88.3092 14.2487 82.7387 17.5247 79.4892C20.8007 76.2397 26.4167 78.5608 26.4167 83.1513C26.4167 85.9882 24.0767 88.3092 21.2167 88.3092ZM42.0167 88.3092C37.3887 88.3092 35.0487 82.7387 38.3247 79.4892C41.6007 76.2397 47.2167 78.5608 47.2167 83.1513C47.2167 85.9882 44.8767 88.3092 42.0167 88.3092ZM62.8167 88.3092C58.1887 88.3092 55.8487 82.7387 59.1247 79.4892C62.4007 76.2397 68.0167 78.5608 68.0167 83.1513C68.0167 85.9882 65.6767 88.3092 62.8167 88.3092ZM83.6167 88.3092C78.9887 88.3092 76.6488 82.7387 79.9248 79.4892C83.2008 76.2397 88.8167 78.5608 88.8167 83.1513C88.8167 85.9882 86.4767 88.3092 83.6167 88.3092ZM83.6167 36.7303V0.625H21.2167V36.7303H5.61675V47.0461H99.2167V36.7303H83.6167ZM31.6167 10.9408H73.2167V16.0987H31.6167V10.9408ZM31.6167 21.2566H62.8167V26.4145H31.6167"/>
</mask>
<path d="M94.0167 52.2039L97.7265 50.7079L96.7167 48.2039H94.0167V52.2039ZM73.2167 52.2039V48.2039H69.2167V52.2039H73.2167ZM31.6167 52.2039H35.6167V48.2039H31.6167V52.2039ZM10.8167 52.2039V48.2039H8.11681L7.10703 50.7079L10.8167 52.2039ZM0.416748 77.9934L-3.29297 76.4974L-3.58325 77.2173V77.9934H0.416748ZM104.417 77.9934H108.417V77.2173L108.126 76.4974L104.417 77.9934ZM83.6167 36.7303H79.6167V40.7303H83.6167V36.7303ZM83.6167 0.625H87.6167V-3.375H83.6167V0.625ZM21.2167 0.625V-3.375H17.2167V0.625H21.2167ZM21.2167 36.7303V40.7303H25.2167V36.7303H21.2167ZM5.61675 36.7303V32.7303H1.61675V36.7303H5.61675ZM5.61675 47.0461H1.61675V51.0461H5.61675V47.0461ZM99.2167 47.0461V51.0461H103.217V47.0461H99.2167ZM99.2167 36.7303H103.217V32.7303H99.2167V36.7303ZM31.6167 10.9408V6.94079H27.6167V10.9408H31.6167ZM73.2167 10.9408H77.2167V6.94079H73.2167V10.9408ZM73.2167 16.0987V20.0987H77.2167V16.0987H73.2167ZM31.6167 16.0987H27.6167V20.0987H31.6167V16.0987ZM62.8167 21.2566H66.8167V17.2566H62.8167V21.2566ZM62.8167 26.4145V30.4145H66.8167V26.4145H62.8167ZM94.0167 48.2039H73.2167V56.2039H94.0167V48.2039ZM69.2167 52.2039C69.2167 55.6379 66.3583 58.5197 62.8167 58.5197V66.5197C70.7152 66.5197 77.2167 60.1174 77.2167 52.2039H69.2167ZM62.8167 58.5197H42.0167V66.5197H62.8167V58.5197ZM42.0167 58.5197C38.4752 58.5197 35.6167 55.6379 35.6167 52.2039H27.6167C27.6167 60.1174 34.1183 66.5197 42.0167 66.5197V58.5197ZM31.6167 48.2039H10.8167V56.2039H31.6167V48.2039ZM7.10703 50.7079L-3.29297 76.4974L4.12646 79.4894L14.5265 53.6999L7.10703 50.7079ZM-3.58325 77.9934V88.3092H4.41675V77.9934H-3.58325ZM-3.58325 88.3092C-3.58325 96.2226 2.91833 102.625 10.8167 102.625V94.625C7.27516 94.625 4.41675 91.7432 4.41675 88.3092H-3.58325ZM10.8167 102.625H94.0167V94.625H10.8167V102.625ZM94.0167 102.625C101.915 102.625 108.417 96.2226 108.417 88.3092H100.417C100.417 91.7432 97.5583 94.625 94.0167 94.625V102.625ZM108.417 88.3092V77.9934H100.417V88.3092H108.417ZM108.126 76.4974L97.7265 50.7079L90.307 53.6999L100.707 79.4894L108.126 76.4974ZM21.2167 84.3092C20.0726 84.3092 19.6634 83.0019 20.3417 82.3291L14.7078 76.6493C8.83411 82.4755 13.1049 92.3092 21.2167 92.3092V84.3092ZM20.3417 82.3291C20.7171 81.9567 21.1865 81.877 21.6742 82.0781C22.1616 82.2791 22.4167 82.6541 22.4167 83.1513H30.4167C30.4167 74.9554 20.4731 70.9307 14.7078 76.6493L20.3417 82.3291ZM22.4167 83.1513C22.4167 83.7484 21.8983 84.3092 21.2167 84.3092V92.3092C26.2552 92.3092 30.4167 88.2279 30.4167 83.1513H22.4167ZM42.0167 84.3092C40.8725 84.3092 40.4634 83.0019 41.1417 82.3291L35.5078 76.6493C29.6341 82.4755 33.9049 92.3092 42.0167 92.3092V84.3092ZM41.1417 82.3291C41.5171 81.9567 41.9865 81.877 42.4742 82.0781C42.9616 82.2791 43.2167 82.6541 43.2167 83.1513H51.2167C51.2167 74.9554 41.2731 70.9307 35.5078 76.6493L41.1417 82.3291ZM43.2167 83.1513C43.2167 83.7484 42.6983 84.3092 42.0167 84.3092V92.3092C47.0552 92.3092 51.2167 88.2279 51.2167 83.1513H43.2167ZM62.8167 84.3092C61.6725 84.3092 61.2634 83.0019 61.9417 82.3291L56.3078 76.6493C50.4341 82.4755 54.7049 92.3092 62.8167 92.3092V84.3092ZM61.9417 82.3291C62.3171 81.9567 62.7865 81.877 63.2742 82.0781C63.7616 82.2791 64.0167 82.6541 64.0167 83.1513H72.0167C72.0167 74.9554 62.0731 70.9307 56.3078 76.6493L61.9417 82.3291ZM64.0167 83.1513C64.0167 83.7484 63.4983 84.3092 62.8167 84.3092V92.3092C67.8552 92.3092 72.0167 88.2279 72.0167 83.1513H64.0167ZM83.6167 84.3092C82.4726 84.3092 82.0634 83.0019 82.7417 82.3291L77.1078 76.6493C71.2341 82.4755 75.5049 92.3092 83.6167 92.3092V84.3092ZM82.7417 82.3291C83.1171 81.9567 83.5865 81.877 84.0742 82.0781C84.5616 82.2791 84.8167 82.6541 84.8167 83.1513H92.8167C92.8167 74.9554 82.8731 70.9307 77.1078 76.6493L82.7417 82.3291ZM84.8167 83.1513C84.8167 83.7484 84.2983 84.3092 83.6167 84.3092V92.3092C88.6552 92.3092 92.8167 88.2279 92.8167 83.1513H84.8167ZM87.6167 36.7303V0.625H79.6167V36.7303H87.6167ZM83.6167 -3.375H21.2167V4.625H83.6167V-3.375ZM17.2167 0.625V36.7303H25.2167V0.625H17.2167ZM21.2167 32.7303H5.61675V40.7303H21.2167V32.7303ZM1.61675 36.7303V47.0461H9.61675V36.7303H1.61675ZM5.61675 51.0461H99.2167V43.0461H5.61675V51.0461ZM103.217 47.0461V36.7303H95.2167V47.0461H103.217ZM99.2167 32.7303H83.6167V40.7303H99.2167V32.7303ZM31.6167 14.9408H73.2167V6.94079H31.6167V14.9408ZM69.2167 10.9408V16.0987H77.2167V10.9408H69.2167ZM73.2167 12.0987H31.6167V20.0987H73.2167V12.0987ZM35.6167 16.0987V10.9408H27.6167V16.0987H35.6167ZM31.6167 25.2566H62.8167V17.2566H31.6167V25.2566ZM58.8167 21.2566V26.4145H66.8167V21.2566H58.8167ZM62.8167 22.4145H31.6167V30.4145H62.8167V22.4145Z" fill="#3441B2" mask="url(#path-1-inside-1)"/>
</svg>
