<svg width="109" height="109" viewBox="0 0 109 109" fill="none" xmlns="http://www.w3.org/2000/svg">
<g clip-path="url(#clip0)">
<path d="M23.2129 50.4042L35.3671 38.25L37.7976 40.6805L25.6442 52.8347L23.2129 50.4042Z" fill="#3441B2"/>
<path d="M30.5068 52.8348L37.7992 45.5425L40.2297 47.973L32.9373 55.2653L30.5068 52.8348Z" fill="#3441B2"/>
<path d="M47.5195 74.7129L57.2533 84.4349L76.6898 64.99L66.9661 55.2646L47.5195 74.7129ZM57.2533 79.5739L52.3822 74.7129L66.9661 60.1257L71.8287 64.99L57.2533 79.5739Z" fill="#3441B2"/>
<path d="M36.0996 106.637L46.4116 96.3237L48.8421 98.7542L38.5301 109.067L36.0996 106.637Z" fill="#3441B2"/>
<path d="M48.1318 106.637L53.2891 101.479L55.7196 103.911L50.5623 109.067L48.1318 106.637Z" fill="#3441B2"/>
<path d="M98.8483 35.5224L101.272 28.2368L109 20.5366L106.573 18.1027L98.2743 26.3803L95.8513 33.6693L90.0638 39.4686L70.6138 20.0204L63.3207 27.3136C61.1008 29.5242 57.6691 29.9598 54.9675 28.3736L70.1086 13.2316H79.8315L90.5589 2.50082L88.1267 0.0703125L78.4089 9.794H68.6852L64.5359 13.9425L52.3826 1.78912L6.20467 47.9737L18.3605 60.1304L5.78 72.69C4.17533 74.3073 3.27228 76.491 3.26557 78.7696V84.9332L0 88.1987L2.4305 90.6292L6.70319 86.3565V78.7696C6.70654 77.4025 7.24787 76.0915 8.2105 75.1205L23.0663 60.2798C23.689 61.3415 24.0155 62.5509 24.0121 63.7812C24.0239 65.6033 23.3004 67.3523 22.0063 68.6338L15.9267 74.7126L17.1419 75.9279C19.1486 77.9421 19.152 81.1984 17.1503 83.2177L15.93 84.4212L18.3362 86.8685L19.5649 85.665C22.4519 82.7721 22.9085 78.2484 20.6584 74.8368L24.4242 71.0694C25.2559 70.2427 25.9374 69.2776 26.4384 68.2176L29.2903 71.0694L26.8597 73.5016L29.2903 75.9321L31.7208 73.4999L34.1529 75.9295L31.7208 78.3617L34.1513 80.7922L36.5834 78.36L39.0139 80.7922L36.5818 83.2227L39.0114 85.6532L41.4403 83.2194L43.8691 85.6482L30.8009 98.7424L23.496 101.165L18.0341 106.645L20.4713 109.065L25.3558 104.163L32.6607 101.739L46.3029 88.0854L62.1054 103.886L108.29 57.7016L92.4943 41.9059L98.8483 35.5224ZM103.422 57.6949L62.1054 99.0185L57.9636 94.8767L102.592 56.8598L103.422 57.6949ZM100.147 54.4193L55.5248 92.437L27.4221 64.3368C27.4321 64.1513 27.4498 63.9684 27.4498 63.7812C27.4607 61.0436 26.3755 58.415 24.436 56.4813L23.2207 55.2677L20.7852 57.6999L11.0606 47.9737L52.3826 6.65013L62.1054 16.373L49.9521 28.5289L51.1673 29.7441C55.1974 33.7633 61.721 33.7633 65.7512 29.7441L70.6138 24.8814L100.147 54.4193Z" fill="#3441B2"/>
<path d="M0.00488281 65.3842L8.59893 56.791L11.0294 59.2215L2.43539 67.8156L0.00488281 65.3842Z" fill="#3441B2"/>
<path d="M0.00390625 53.3536L3.44152 49.916L5.87203 52.3474L2.43525 55.7841L0.00390625 53.3536Z" fill="#3441B2"/>
</g>
<defs>
<clipPath id="clip0">
<rect width="109" height="109" fill="white"/>
</clipPath>
</defs>
</svg>
