<svg width="104" height="100" viewBox="0 0 104 100" fill="none" xmlns="http://www.w3.org/2000/svg">
<path d="M97.5 0.4375H13C9.41525 0.4375 6.5 3.35275 6.5 6.9375V11.8125H4.0625C1.82163 11.8125 0 13.6357 0 15.875C0 18.1143 1.82163 19.9375 4.0625 19.9375H6.5V26.4375H4.0625C1.82163 26.4375 0 28.2607 0 30.5C0 32.7393 1.82163 34.5625 4.0625 34.5625H6.5V41.0625H4.0625C1.82163 41.0625 0 42.8857 0 45.125C0 47.3643 1.82163 49.1875 4.0625 49.1875H6.5V55.6875H4.0625C1.82163 55.6875 0 57.5091 0 59.75C0 61.9909 1.82163 63.8125 4.0625 63.8125H6.5V70.3125H4.0625C1.82163 70.3125 0 72.1341 0 74.375C0 76.6159 1.82163 78.4375 4.0625 78.4375H6.5V93.0625C6.5 96.6473 9.41525 99.5625 13 99.5625H97.5C101.085 99.5625 104 96.6473 104 93.0625V83.3125V6.9375C104 3.35275 101.085 0.4375 97.5 0.4375ZM3.25 15.875C3.25 15.4265 3.61562 15.0625 4.0625 15.0625H12.1875C12.6344 15.0625 13 15.4265 13 15.875C13 16.3235 12.6344 16.6875 12.1875 16.6875H4.0625C3.61562 16.6875 3.25 16.3235 3.25 15.875ZM3.25 30.5C3.25 30.0515 3.61562 29.6875 4.0625 29.6875H12.1875C12.6344 29.6875 13 30.0515 13 30.5C13 30.9485 12.6344 31.3125 12.1875 31.3125H4.0625C3.61562 31.3125 3.25 30.9485 3.25 30.5ZM3.25 45.125C3.25 44.6765 3.61562 44.3125 4.0625 44.3125H12.1875C12.6344 44.3125 13 44.6765 13 45.125C13 45.5735 12.6344 45.9375 12.1875 45.9375H4.0625C3.61562 45.9375 3.25 45.5735 3.25 45.125ZM3.25 59.75C3.25 59.3031 3.61562 58.9375 4.0625 58.9375H12.1875C12.6344 58.9375 13 59.3031 13 59.75C13 60.1969 12.6344 60.5625 12.1875 60.5625H4.0625C3.61562 60.5625 3.25 60.1969 3.25 59.75ZM3.25 74.375C3.25 73.9281 3.61562 73.5625 4.0625 73.5625H12.1875C12.6344 73.5625 13 73.9281 13 74.375C13 74.8219 12.6344 75.1875 12.1875 75.1875H4.0625C3.61562 75.1875 3.25 74.8219 3.25 74.375ZM12.1875 78.4375C14.4284 78.4375 16.25 76.6159 16.25 74.375C16.25 72.1341 14.4284 70.3125 12.1875 70.3125H9.75V63.8125H12.1875C14.4284 63.8125 16.25 61.9909 16.25 59.75C16.25 57.5091 14.4284 55.6875 12.1875 55.6875H9.75V49.1875H12.1875C14.4284 49.1875 16.25 47.3643 16.25 45.125C16.25 42.8857 14.4284 41.0625 12.1875 41.0625H9.75V34.5625H12.1875C14.4284 34.5625 16.25 32.7393 16.25 30.5C16.25 28.2607 14.4284 26.4375 12.1875 26.4375H9.75V19.9375H12.1875C14.4284 19.9375 16.25 18.1143 16.25 15.875C16.25 13.6357 14.4284 11.8125 12.1875 11.8125H9.75V6.9375C9.75 5.14512 11.2076 3.6875 13 3.6875H97.5C99.2924 3.6875 100.75 5.14512 100.75 6.9375V83.3125C100.75 85.1049 99.2924 86.5625 97.5 86.5625H13C11.8121 86.5625 10.7104 86.907 9.75 87.4676V78.4375H12.1875ZM9.75 93.0625C9.75 91.2701 11.2076 89.8125 13 89.8125H92.625V96.3125H13C11.2076 96.3125 9.75 94.8549 9.75 93.0625ZM97.5 96.3125H95.875V89.8125H97.5C98.6879 89.8125 99.7896 89.468 100.75 88.9074V93.0625C100.75 94.8549 99.2924 96.3125 97.5 96.3125Z" fill="#3441B2"/>
<path d="M22.75 81.6895H94.25H94.2516C94.4385 81.6895 94.6254 81.644 94.809 81.5773C94.8545 81.5595 94.9 81.5432 94.9439 81.5221C94.9812 81.5026 95.0251 81.4945 95.0625 81.4733C95.1226 81.4392 95.16 81.3807 95.2136 81.3401C95.3046 81.2718 95.3891 81.2052 95.4639 81.1191C95.5321 81.0395 95.5825 80.9533 95.6345 80.8656C95.6865 80.7746 95.7352 80.6901 95.7677 80.591C95.8051 80.4837 95.8197 80.3732 95.8344 80.2595C95.8441 80.1912 95.875 80.1327 95.875 80.0645V10.1895C95.875 9.29245 95.1486 8.56445 94.25 8.56445H22.75C21.8514 8.56445 21.125 9.29245 21.125 10.1895V80.0645C21.125 80.9631 21.8514 81.6895 22.75 81.6895ZM46.3125 54.0352L52.5086 64.6546L44.5542 78.4378H32.0743L46.3125 54.0352ZM69.8718 41.0628L91.4371 78.4395H48.308L69.8718 41.0628ZM24.375 11.8145H92.625V73.9967L71.279 36.9987C71.2627 36.9695 71.2351 36.9548 71.2156 36.9272C71.1539 36.833 71.0742 36.7566 70.993 36.6753C70.9166 36.6022 70.8467 36.5275 70.759 36.4706C70.7297 36.4511 70.7135 36.4202 70.6826 36.4023C70.6193 36.3666 70.5494 36.3633 70.4844 36.3357C70.382 36.2935 70.2845 36.2545 70.1773 36.2333C70.0749 36.2138 69.9741 36.2106 69.8701 36.2122C69.7678 36.2122 69.667 36.2138 69.5646 36.2333C69.4557 36.2545 69.3566 36.2951 69.2543 36.3373C69.1909 36.3633 69.1226 36.3666 69.0609 36.4023C69.03 36.4202 69.0154 36.4495 68.9861 36.469C68.8967 36.5275 68.8236 36.6022 68.7489 36.6786C68.6676 36.7582 68.5896 36.8346 68.5295 36.9256C68.5116 36.9532 68.484 36.9695 68.4661 36.9971L54.379 61.4111L47.7165 49.9922C47.7003 49.9646 47.6742 49.9516 47.6564 49.924C47.5979 49.833 47.5183 49.7582 47.4403 49.6802C47.3623 49.6038 47.2908 49.5275 47.203 49.469C47.1754 49.4511 47.1624 49.4235 47.1331 49.4072C47.0697 49.3698 46.9983 49.3666 46.9316 49.339C46.8293 49.2967 46.7317 49.2545 46.6229 49.235C46.5205 49.2138 46.4198 49.2138 46.3158 49.2138C46.2134 49.2138 46.1126 49.2138 46.0086 49.235C45.9014 49.2561 45.8039 49.2967 45.7031 49.339C45.6349 49.3666 45.5634 49.3715 45.4984 49.4072C45.4691 49.4235 45.4545 49.4527 45.4269 49.4706C45.3391 49.5275 45.2693 49.6038 45.1929 49.677C45.1133 49.7566 45.0336 49.8313 44.9735 49.924C44.9556 49.95 44.9296 49.963 44.9134 49.9906L28.314 78.4395H24.375V11.8145Z" fill="#3441B2"/>
<path d="M40.6299 32.9375C43.3176 32.9375 45.5049 30.7503 45.5049 28.0625C45.5049 25.3747 43.3176 23.1875 40.6299 23.1875C37.9421 23.1875 35.7549 25.3747 35.7549 28.0625C35.7549 30.7503 37.9421 32.9375 40.6299 32.9375ZM40.6299 26.4375C41.5269 26.4375 42.2549 27.1671 42.2549 28.0625C42.2549 28.9579 41.5269 29.6875 40.6299 29.6875C39.7329 29.6875 39.0049 28.9579 39.0049 28.0625C39.0049 27.1671 39.7329 26.4375 40.6299 26.4375Z" fill="#3441B2"/>
<path d="M40.6299 21.5625C41.5285 21.5625 42.2549 20.8345 42.2549 19.9375V18.3125C42.2549 17.4155 41.5285 16.6875 40.6299 16.6875C39.7313 16.6875 39.0049 17.4155 39.0049 18.3125V19.9375C39.0049 20.8361 39.7313 21.5625 40.6299 21.5625Z" fill="#3441B2"/>
<path d="M40.6299 34.5625C39.7313 34.5625 39.0049 35.2905 39.0049 36.1875V37.8125C39.0049 38.7095 39.7313 39.4375 40.6299 39.4375C41.5285 39.4375 42.2549 38.7095 42.2549 37.8125V36.1875C42.2549 35.2905 41.5285 34.5625 40.6299 34.5625Z" fill="#3441B2"/>
<path d="M33.7348 23.4651C34.0517 23.782 34.4677 23.9413 34.8837 23.9413C35.2997 23.9413 35.7157 23.782 36.0325 23.4651C36.6679 22.8298 36.6679 21.8028 36.0325 21.1674L34.8837 20.0185C34.2483 19.3831 33.2213 19.3831 32.5859 20.0185C31.9505 20.6539 31.9505 21.6809 32.5859 22.3163L33.7348 23.4651Z" fill="#3441B2"/>
<path d="M47.5233 32.6591C46.8879 32.0238 45.8609 32.0238 45.2256 32.6591C44.5902 33.2945 44.5902 34.3215 45.2256 34.9569L46.3744 36.1058C46.6913 36.4227 47.1073 36.5819 47.5233 36.5819C47.9393 36.5819 48.3553 36.4227 48.6722 36.1058C49.3076 35.4704 49.3076 34.4434 48.6722 33.808L47.5233 32.6591Z" fill="#3441B2"/>
<path d="M30.877 29.6875H32.502C33.4006 29.6875 34.127 28.9595 34.127 28.0625C34.127 27.1655 33.4006 26.4375 32.502 26.4375H30.877C29.9783 26.4375 29.252 27.1655 29.252 28.0625C29.252 28.9595 29.9783 29.6875 30.877 29.6875Z" fill="#3441B2"/>
<path d="M47.127 28.0625C47.127 28.9595 47.8533 29.6875 48.752 29.6875H50.377C51.2756 29.6875 52.002 28.9595 52.002 28.0625C52.002 27.1655 51.2756 26.4375 50.377 26.4375H48.752C47.8533 26.4375 47.127 27.1655 47.127 28.0625V28.0625Z" fill="#3441B2"/>
<path d="M33.7338 32.6631L32.5849 33.8119C31.9496 34.4473 31.9496 35.4743 32.5849 36.1097C32.9018 36.4266 33.3178 36.5858 33.7338 36.5858C34.1498 36.5858 34.5658 36.4266 34.8827 36.1097L36.0316 34.9608C36.6669 34.3254 36.6669 33.2984 36.0316 32.6631C35.3962 32.0277 34.3676 32.0277 33.7338 32.6631Z" fill="#3441B2"/>
<path d="M46.3705 23.9432C46.7865 23.9432 47.2025 23.784 47.5194 23.4671L48.6683 22.3182C49.3036 21.6829 49.3036 20.6559 48.6683 20.0205C48.0329 19.3851 47.0059 19.3851 46.3705 20.0205L45.2216 21.1694C44.5863 21.8047 44.5863 22.8317 45.2216 23.4671C45.5385 23.7856 45.9545 23.9432 46.3705 23.9432Z" fill="#3441B2"/>
</svg>
