<svg class="headerSVG" width="561" height="555" viewBox="0 0 561 555" fill="none" xmlns="http://www.w3.org/2000/svg">
<path d="M136.3 415.072C132.478 418.39 125.526 420.493 117.671 420.256C109.816 420.019 103.067 417.511 99.5399 413.971C103.361 410.653 110.304 408.551 118.168 408.788C126.032 409.025 132.8 411.532 136.3 415.072Z" fill="#65C8D0"/>
<path d="M260.143 243.24C252.656 246.994 246.68 254.937 245.022 264.647C243.365 274.357 246.441 283.371 252.389 288.7C259.875 284.954 265.852 277.01 267.509 267.292C269.167 257.575 266.082 248.576 260.143 243.24Z" fill="#65C8D0"/>
<path d="M216.007 276.765C215.086 282.392 217.996 289.296 224.294 294.893C230.593 300.489 238.724 303.303 245.538 302.943C246.459 297.324 243.549 290.42 237.251 284.823C230.952 279.227 222.821 276.337 216.007 276.765Z" fill="#65C8D0"/>
<path d="M245.289 305.268C251.026 308.326 259.793 309.09 268.577 306.751C277.362 304.411 283.928 299.511 286.396 294.22C280.659 291.162 271.892 290.397 263.108 292.737C254.323 295.076 247.757 299.977 245.289 305.268Z" fill="#65C8D0"/>
<path d="M238.236 325.964C243.973 329.022 252.739 329.787 261.524 327.447C270.309 325.108 276.874 320.207 279.351 314.916C273.605 311.858 264.848 311.093 256.063 313.441C247.279 315.788 240.713 320.681 238.236 325.964Z" fill="#65C8D0"/>
<path d="M229.267 351.431C235.004 354.489 243.77 355.254 252.555 352.907C261.34 350.56 267.905 345.666 270.373 340.383C264.636 337.325 255.879 336.561 247.095 338.9C238.31 341.24 231.735 346.14 229.267 351.431Z" fill="#65C8D0"/>
<path d="M223.254 374.436C228.991 377.495 237.748 378.259 246.533 375.912C255.317 373.565 261.883 368.672 264.36 363.381C258.623 360.323 249.857 359.558 241.072 361.905C232.287 364.253 225.722 369.146 223.254 374.436Z" fill="#65C8D0"/>
<path d="M223.254 372.395C217.508 375.453 208.751 376.218 199.966 373.871C191.181 371.523 184.616 366.63 182.139 361.347C187.875 358.289 196.642 357.525 205.427 359.864C214.211 362.204 220.777 367.104 223.254 372.395Z" fill="#65C8D0"/>
<path d="M207.949 298.616C207.028 304.235 209.938 311.139 216.237 316.736C222.535 322.332 230.657 325.192 237.48 324.794C238.401 319.167 235.491 312.263 229.193 306.667C222.894 301.07 214.754 298.218 207.949 298.616Z" fill="#65C8D0"/>
<path d="M198.723 323.479C197.802 329.099 200.712 336.01 207.01 341.599C213.309 347.188 221.43 350.055 228.254 349.657C229.175 344.038 226.265 337.126 219.966 331.537C213.668 325.949 205.546 323.082 198.723 323.479Z" fill="#65C8D0"/>
<path d="M231.431 471.282C225.064 490.66 220.11 510.34 216.596 530.213L209.312 530.733C213.229 510.118 218.679 489.725 225.63 469.669C236.541 438.969 251.174 409.267 269.305 381.019C278.347 367.043 288.127 353.495 298.698 340.399C309.269 327.302 320.651 314.824 332.686 302.844C344.627 290.903 357.325 279.498 370.726 268.676C384.115 257.973 397.991 247.735 412.964 238.859L413.535 239.677C398.802 248.721 385.146 259.135 371.996 269.976C358.845 280.933 346.402 292.46 334.721 304.511C322.977 316.601 311.927 329.198 301.571 342.302C291.304 355.422 281.837 369.062 273.108 383.015C255.668 411.195 241.704 440.768 231.431 471.282Z" fill="#65C8D0"/>
<path d="M467.542 198.322C467.653 209.11 460.774 221.565 448.334 230.869C435.893 240.174 421.022 243.958 409.327 241.856C409.226 231.068 416.095 218.614 428.536 209.309C440.976 200.004 455.811 196.228 467.542 198.322Z" fill="#65C8D0"/>
<path d="M378.037 195.555C387.466 202.183 394.013 214.783 394.317 229.363C394.621 243.943 388.728 256.78 379.584 263.768C370.154 257.139 363.607 244.539 363.257 229.959C362.907 215.38 368.921 202.55 378.037 195.555Z" fill="#65C8D0"/>
<path d="M327.741 223.01C338.791 227.138 348.819 237.712 353.46 251.673C358.101 265.633 356.158 279.449 349.445 288.371C338.395 284.25 328.367 273.676 323.726 259.708C319.085 245.74 321.028 231.94 327.741 223.01Z" fill="#65C8D0"/>
<path d="M294.987 254.861C306.037 258.982 316.065 269.555 320.706 283.524C325.347 297.492 323.404 311.292 316.682 320.222C305.632 316.094 295.613 305.528 290.972 291.559C286.331 277.591 288.274 263.768 294.987 254.861Z" fill="#65C8D0"/>
<path d="M256.956 287.905C268.816 289.334 281.506 297.24 289.95 309.671C298.394 322.103 300.429 335.895 296.469 346.079C284.618 344.642 271.929 336.736 263.485 324.305C255.041 311.873 252.997 298.081 256.956 287.905Z" fill="#65C8D0"/>
<path d="M231.624 327.684C242.232 326.514 255.17 330.742 265.575 339.795C275.981 348.847 281.184 360.323 280.309 369.933C269.701 371.095 256.763 366.875 246.367 357.815C235.971 348.755 230.749 337.287 231.624 327.684Z" fill="#65C8D0"/>
<path d="M212.913 352.891C223.521 351.722 236.459 355.949 246.864 365.002C257.269 374.054 262.472 385.538 261.597 395.14C250.989 396.302 238.052 392.082 227.655 383.03C217.259 373.978 212.047 362.494 212.913 352.891Z" fill="#65C8D0"/>
<path d="M204.128 388.733C213.217 387.732 224.304 391.379 233.217 399.116C242.131 406.853 246.597 416.701 245.842 424.942C236.753 425.944 225.666 422.305 216.743 414.56C207.821 406.815 203.373 396.968 204.128 388.733Z" fill="#65C8D0"/>
<path d="M195.804 426.043C202.148 422.221 211.974 421.082 221.937 423.75C231.9 426.418 239.433 432.16 242.435 438.551C236.099 442.374 226.265 443.513 216.302 440.845C206.338 438.177 198.778 432.397 195.804 426.043Z" fill="#65C8D0"/>
<path d="M193.796 456.434C197.48 452.038 204.662 448.934 212.987 448.667C221.311 448.399 228.687 451.037 232.748 455.18C229.064 459.569 221.882 462.673 213.548 462.941C205.215 463.208 197.848 460.593 193.796 456.434Z" fill="#65C8D0"/>
<path d="M452.643 279.823C443.011 286.207 427.78 288.463 412.126 284.801C396.472 281.138 384.409 272.484 379.427 262.675C389.068 256.283 404.29 254.027 419.944 257.697C435.598 261.367 447.67 269.984 452.643 279.823Z" fill="#65C8D0"/>
<path d="M422.587 305.963C412.946 312.347 397.724 314.603 382.07 310.941C366.416 307.278 354.353 298.624 349.38 288.814C359.021 282.423 374.243 280.167 389.897 283.837C405.551 287.507 417.605 296.154 422.587 305.963Z" fill="#65C8D0"/>
<path d="M390.892 337.853C381.25 344.237 366.029 346.492 350.375 342.83C334.721 339.168 322.658 330.513 317.685 320.658C327.317 314.274 342.548 312.018 358.202 315.681C373.856 319.343 385.91 328.036 390.892 337.853Z" fill="#65C8D0"/>
<path d="M353.92 360.193C346.075 365.392 333.662 367.227 320.982 364.245C308.302 361.263 298.44 354.229 294.388 346.247C302.234 341.049 314.647 339.214 327.326 342.195C340.006 345.177 349.868 352.219 353.92 360.193Z" fill="#65C8D0"/>
<path d="M326.581 380.966C320.19 385.377 310.153 387.006 299.877 384.597C289.6 382.189 281.709 376.363 278.504 369.696C284.895 365.285 294.932 363.664 305.208 366.072C315.485 368.481 323.413 374.306 326.581 380.966Z" fill="#65C8D0"/>
<path d="M311.387 406.257C304.987 410.668 294.95 412.289 284.683 409.881C274.415 407.473 266.514 401.647 263.31 394.987C269.701 390.576 279.747 388.948 290.014 391.356C300.281 393.764 308.173 399.59 311.387 406.257Z" fill="#65C8D0"/>
<path d="M294.324 429.377C289.232 433.964 280.254 436.64 270.309 435.906C260.364 435.172 251.993 431.212 247.794 425.967C252.887 421.38 261.865 418.704 271.81 419.438C281.755 420.172 290.125 424.101 294.324 429.377Z" fill="#65C8D0"/>
<path d="M278.394 458.101C272.381 460.112 264.075 459.278 256.45 455.333C248.826 451.388 243.816 445.394 242.702 439.652C248.715 437.634 257.021 438.475 264.646 442.42C272.27 446.365 277.279 452.397 278.394 458.101Z" fill="#65C8D0"/>
<path d="M259.406 475.923C254.572 476.687 248.457 474.967 243.347 471.03C238.236 467.092 235.427 461.908 235.483 457.482C240.326 456.717 246.431 458.43 251.542 462.375C256.653 466.32 259.47 471.488 259.406 475.923Z" fill="#65C8D0"/>
<path d="M246.238 481.175C243.07 481.848 239.203 480.953 236.109 478.545C234.647 477.463 233.49 476.128 232.718 474.634C231.946 473.14 231.579 471.523 231.643 469.898C234.801 469.225 238.678 470.12 241.772 472.528C243.229 473.613 244.384 474.948 245.156 476.442C245.927 477.935 246.296 479.551 246.238 481.175Z" fill="#65C8D0"/>
<path d="M242.582 489.578C239.415 490.25 235.547 489.356 232.453 486.947C230.995 485.864 229.839 484.528 229.068 483.034C228.296 481.541 227.927 479.925 227.987 478.3C231.155 477.635 235.032 478.522 238.116 480.93C239.574 482.015 240.728 483.351 241.499 484.845C242.271 486.338 242.64 487.953 242.582 489.578Z" fill="#65C8D0"/>
<path d="M230.832 350.277C224.55 371.531 219.668 393.055 216.21 414.751C214.552 425.592 213.106 436.464 212.268 447.374C211.43 458.285 210.832 469.195 210.887 480.112C210.833 497.033 212.063 513.941 214.57 530.733H209.119C206.897 513.915 205.947 496.998 206.274 480.082C206.384 469.072 207.112 458.078 208.171 447.114C209.23 436.151 210.786 425.218 212.627 414.338C216.426 392.583 221.652 371.016 228.282 349.734C231.541 339.096 235.176 328.535 239.184 318.051C243.199 307.584 247.472 297.202 252.426 286.987L253.982 287.515C249.231 297.699 245.105 308.158 241.265 318.586C237.426 329.015 233.963 339.642 230.832 350.277Z" fill="#65C8D0"/>
<path d="M226.67 530.733C225.228 528.394 223.76 526.062 222.269 523.738C208.093 501.985 192.552 480.864 175.711 460.464C158.915 440.027 141.217 420.065 122.303 400.897L122.607 400.683C141.944 419.545 160.168 439.217 177.498 459.416C194.899 479.597 211.012 500.524 225.768 522.109C227.689 524.963 229.58 527.833 231.44 530.718L226.67 530.733Z" fill="#65C8D0"/>
<path d="M103.794 374.834C109.991 375.308 116.419 378.733 120.47 384.33C124.522 389.926 125.148 396.257 122.745 401.02C116.547 400.546 110.12 397.121 106.068 391.516C102.017 385.912 101.391 379.597 103.794 374.834Z" fill="#65C8D0"/>
<path d="M149.863 386.769C152.386 390.851 152.515 396.998 149.679 403.084C146.843 409.17 141.778 413.65 136.603 415.263C134.071 411.181 133.942 405.041 136.778 398.948C139.614 392.854 144.679 388.389 149.863 386.769Z" fill="#65C8D0"/>
<path d="M151.42 431.732C147.211 434.713 140.038 436.227 132.248 435.333C124.458 434.438 118.049 431.38 114.973 427.565C119.181 424.583 126.345 423.069 134.136 423.956C141.926 424.843 148.335 427.917 151.42 431.732Z" fill="#65C8D0"/>
<path d="M170.002 451.656C165.794 454.638 158.63 456.151 150.84 455.257C143.049 454.362 136.64 451.296 133.556 447.489C137.764 444.507 144.937 442.993 152.727 443.88C160.518 444.767 166.927 447.841 170.002 451.656Z" fill="#65C8D0"/>
<path d="M182.627 467.528C178.428 470.502 171.254 472.016 163.464 471.129C155.674 470.242 149.265 467.169 146.18 463.354C150.388 460.372 157.562 458.858 165.352 459.753C173.142 460.647 179.551 463.705 182.627 467.528Z" fill="#65C8D0"/>
<path d="M196.633 485.044C192.424 488.018 185.251 489.539 177.461 488.645C169.671 487.75 163.262 484.723 160.186 480.9C164.394 477.926 171.558 476.404 179.348 477.299C187.139 478.193 193.575 481.229 196.633 485.044Z" fill="#65C8D0"/>
<path d="M166.042 403.864C168.565 407.947 168.694 414.086 165.867 420.179C163.04 426.273 157.957 430.745 152.782 432.359C150.25 428.276 150.121 422.129 152.957 416.043C155.793 409.957 160.867 405.477 166.042 403.864Z" fill="#65C8D0"/>
<path d="M181.503 421.456C184.036 425.539 184.165 431.678 181.329 437.772C178.492 443.865 173.428 448.338 168.243 449.951C165.72 445.868 165.591 439.729 168.428 433.635C171.264 427.542 176.328 423.069 181.503 421.456Z" fill="#65C8D0"/>
<path d="M196.227 439.194C198.75 443.276 198.879 449.416 196.043 455.509C193.207 461.603 188.142 466.075 182.967 467.688C180.435 463.598 180.306 457.459 183.142 451.373C185.978 445.287 191.043 440.807 196.227 439.194Z" fill="#65C8D0"/>
<path d="M210.491 456.572C213.014 460.655 213.143 466.794 210.307 472.887C207.471 478.981 202.406 483.453 197.222 485.059C194.699 480.976 194.57 474.837 197.406 468.744C200.242 462.65 205.307 458.177 210.491 456.572Z" fill="#65C8D0"/>
<path d="M519.993 456.717C522.599 459.011 527.36 460.41 532.673 460.249C537.986 460.089 542.618 458.376 545.021 455.968C542.415 453.712 537.655 452.275 532.341 452.436C527.028 452.596 522.387 454.309 519.993 456.717Z" fill="#B5A4E2"/>
<path d="M305.273 363.236C315.832 368.19 325.953 373.762 335.559 379.911C345.207 386.01 354.456 392.533 363.267 399.452C372.086 406.367 380.479 413.648 388.415 421.265C396.319 428.923 403.744 436.913 410.662 445.203C424.504 461.83 436.152 479.644 445.405 498.339C449.254 506.291 452.674 514.372 455.663 522.583H450.912C448.186 514.825 445.08 507.165 441.593 499.601C432.785 480.986 421.591 463.213 408.204 446.587C401.492 438.277 394.276 430.257 386.582 422.557C378.829 414.912 370.63 407.574 361.987 400.546C353.345 393.547 344.259 386.937 334.767 380.744C325.32 374.502 315.35 368.828 304.932 363.763L305.273 363.236Z" fill="#B5A4E2"/>
<path d="M266.017 340.49C266.588 347.195 271.966 354.627 280.917 359.856C289.867 365.086 300.107 366.783 307.906 364.956C307.335 358.251 301.958 350.819 293.007 345.59C284.057 340.36 273.817 338.694 266.017 340.49Z" fill="#B5A4E2"/>
<path d="M326.295 334.802C320.319 339.336 316.645 347.455 317.271 356.531C317.897 365.606 322.667 373.312 329.242 377.258C335.218 372.716 338.892 364.604 338.266 355.529C337.64 346.454 332.86 338.74 326.295 334.802Z" fill="#B5A4E2"/>
<path d="M506.724 248.576C499.79 252.047 494.255 259.402 492.727 268.401C491.198 277.4 494.034 285.741 499.532 290.68C506.475 287.209 512 279.823 513.538 270.855C515.076 261.887 512.184 253.515 506.724 248.576Z" fill="#8968E2"/>
<path d="M465.857 279.586C465.001 284.793 467.699 291.185 473.537 296.368C479.375 301.552 486.898 304.19 493.215 303.823C494.062 298.616 491.373 292.224 485.526 287.041C479.679 281.857 472.165 279.219 465.857 279.586Z" fill="#8968E2"/>
<path d="M493.767 305.818C499.081 308.677 507.193 309.373 515.333 307.187C523.474 305 529.542 300.489 531.835 295.588C526.522 292.737 518.409 292.033 510.269 294.22C502.129 296.406 496.051 300.948 493.767 305.818Z" fill="#8968E2"/>
<path d="M485.903 325.352C491.217 328.204 499.338 328.907 507.469 326.721C515.6 324.534 521.687 320.016 523.971 315.123C518.657 312.263 510.545 311.56 502.414 313.754C494.283 315.948 488.196 320.459 485.903 325.352Z" fill="#8968E2"/>
<path d="M478.113 348.755C483.427 351.615 491.539 352.31 499.679 350.124C507.819 347.937 513.888 343.419 516.181 338.525C510.867 335.666 502.755 334.97 494.615 337.157C486.475 339.344 480.425 343.862 478.113 348.755Z" fill="#8968E2"/>
<path d="M472.588 370.04C477.901 372.9 486.014 373.595 494.154 371.409C502.294 369.222 508.335 364.688 510.628 359.826C505.315 356.974 497.202 356.271 489.062 358.457C480.922 360.644 474.854 365.162 472.588 370.04Z" fill="#8968E2"/>
<path d="M466.87 390.492C472.183 393.344 480.305 394.047 488.436 391.86C496.567 389.674 502.654 385.155 504.938 380.255C499.624 377.403 491.512 376.699 483.381 378.886C475.25 381.073 469.163 385.591 466.87 390.492Z" fill="#8968E2"/>
<path d="M462.956 414.652C468.27 417.511 476.382 418.215 484.513 416.028C492.644 413.841 498.731 409.323 501.024 404.445C495.71 401.593 487.598 400.89 479.458 403.076C471.318 405.263 465.222 409.797 462.956 414.652Z" fill="#8968E2"/>
<path d="M458.334 443.705C463.647 446.556 471.759 447.26 479.89 445.073C488.021 442.887 494.108 438.368 496.392 433.498C491.078 430.646 482.966 429.943 474.835 432.129C466.704 434.316 460.617 438.804 458.334 443.705Z" fill="#8968E2"/>
<path d="M457.616 463.537C461.023 465.364 466.216 465.831 471.428 464.416C476.64 463.002 480.526 460.119 481.99 456.985C478.583 455.158 473.389 454.691 468.177 456.113C462.966 457.535 459.089 460.402 457.616 463.537Z" fill="#8968E2"/>
<path d="M473.002 367.884C467.689 370.744 459.577 371.439 451.436 369.253C443.296 367.066 437.228 362.548 434.935 357.655C440.248 354.795 448.361 354.099 456.501 356.286C464.641 358.473 470.746 362.983 473.002 367.884Z" fill="#8968E2"/>
<path d="M468.73 388.611C463.417 391.471 455.304 392.166 447.173 389.98C439.042 387.793 432.956 383.282 430.663 378.381C435.976 375.53 444.098 374.826 452.229 377.013C460.36 379.199 466.446 383.718 468.73 388.611Z" fill="#8968E2"/>
<path d="M463.463 411.846C458.149 414.705 450.037 415.409 441.906 413.214C433.775 411.02 427.688 406.509 425.395 401.616C430.709 398.764 438.821 398.061 446.961 400.248C455.101 402.434 461.179 406.953 463.463 411.846Z" fill="#8968E2"/>
<path d="M461.198 438.636C457.404 440.677 451.602 441.174 445.801 439.614C440 438.055 435.672 434.828 434.014 431.334C437.808 429.293 443.6 428.788 449.411 430.356C455.221 431.923 459.558 435.142 461.198 438.636Z" fill="#8968E2"/>
<path d="M458.398 299.847C457.551 305.053 460.24 311.453 466.087 316.629C471.935 321.805 479.439 324.458 485.756 324.091C486.603 318.884 483.915 312.493 478.067 307.309C472.22 302.125 464.706 299.488 458.398 299.847Z" fill="#8968E2"/>
<path d="M449.853 324.687C449.006 329.894 451.694 336.285 457.542 341.469C463.389 346.653 470.894 349.29 477.192 348.923C478.04 343.724 475.351 337.325 469.503 332.142C463.656 326.958 456.16 324.32 449.853 324.687Z" fill="#8968E2"/>
<path d="M361.876 349.634C354.657 352.693 348.515 359.696 346.222 368.58C343.929 377.464 346.038 385.958 351.102 391.203C358.322 388.145 364.464 381.141 366.757 372.257C369.049 363.373 366.941 354.879 361.876 349.634Z" fill="#B5A4E2"/>
<path d="M385.873 367.968C378.663 371.027 372.512 378.03 370.219 386.914C367.926 395.798 370.044 404.292 375.099 409.537C382.319 406.479 388.47 399.475 390.753 390.591C393.037 381.707 390.938 373.213 385.873 367.968Z" fill="#B5A4E2"/>
<path d="M432.992 410.401C425.755 410.149 417.274 413.367 410.782 419.43C404.29 425.493 401.445 432.879 402.605 438.85C409.833 439.102 418.324 435.891 424.806 429.82C431.289 423.75 434.134 416.334 432.992 410.401Z" fill="#B5A4E2"/>
<path d="M447.09 425.241C439.862 424.981 431.372 428.199 424.889 434.27C418.406 440.341 415.561 447.718 416.721 453.644C423.95 453.896 432.44 450.685 438.923 444.614C445.405 438.544 448.251 431.204 447.09 425.241Z" fill="#B5A4E2"/>
<path d="M455.157 447.114C448.96 446.893 441.685 449.653 436.123 454.852C430.561 460.051 428.13 466.381 429.125 471.465C435.322 471.679 442.597 468.927 448.158 463.72C453.72 458.514 456.151 452.199 455.157 447.114Z" fill="#B5A4E2"/>
<path d="M462.975 469.929C458.463 467.811 451.769 467.566 445.194 469.669C438.619 471.771 433.858 475.693 432.228 479.776C436.741 481.886 443.444 482.138 450.01 480.036C456.575 477.933 461.345 474.019 462.975 469.929Z" fill="#B5A4E2"/>
<path d="M466.142 488.736C463.38 486.175 458.361 484.562 452.726 484.761C447.09 484.96 442.265 486.932 439.77 489.684C442.532 492.246 447.551 493.859 453.186 493.652C458.822 493.446 463.638 491.489 466.142 488.736Z" fill="#B5A4E2"/>
<path d="M280.898 390.446C287.786 393.986 298.191 394.712 308.523 391.746C318.855 388.779 326.516 382.862 329.297 376.547C322.409 373.007 311.995 372.28 301.672 375.247C291.35 378.213 283.679 384.131 280.898 390.446Z" fill="#B5A4E2"/>
<path d="M302.749 405.378C309.628 408.918 320.033 409.644 330.374 406.67C340.715 403.696 348.368 397.793 351.148 391.448C344.261 387.908 333.855 387.181 323.523 390.156C313.192 393.13 305.521 399.093 302.749 405.378Z" fill="#B5A4E2"/>
<path d="M326.038 423.78C332.925 427.32 343.331 428.047 353.663 425.08C363.994 422.114 371.647 416.196 374.427 409.881C367.54 406.341 357.134 405.615 346.802 408.581C336.471 411.548 328.819 417.442 326.038 423.78Z" fill="#B5A4E2"/>
<path d="M352.318 436.029C357.926 438.903 366.388 439.5 374.796 437.084C383.203 434.668 389.428 429.859 391.693 424.721C386.085 421.838 377.623 421.25 369.206 423.666C360.79 426.082 354.583 430.891 352.318 436.029Z" fill="#B5A4E2"/>
<path d="M372.006 447.718C376.61 450.18 383.461 450.777 390.257 448.796C397.052 446.816 402.034 442.871 403.802 438.59C399.198 436.128 392.356 435.532 385.56 437.519C378.765 439.507 373.774 443.437 372.006 447.718Z" fill="#B5A4E2"/>
<path d="M383.764 462.757C388.369 465.211 395.22 465.815 402.015 463.827C408.811 461.84 413.793 457.91 415.561 453.621C410.957 451.167 404.115 450.563 397.319 452.55C390.523 454.538 385.532 458.476 383.764 462.757Z" fill="#B5A4E2"/>
<path d="M396.656 476.366C400.34 478.988 406.583 480.258 413.231 479.363C419.88 478.469 425.313 475.632 427.845 472.169C424.162 469.546 417.909 468.277 411.27 469.172C404.631 470.066 399.179 472.903 396.656 476.366Z" fill="#B5A4E2"/>
<path d="M409.115 493.507C413.287 494.494 418.848 493.599 423.766 490.816C428.683 488.033 431.703 484.058 432.118 480.464C427.937 479.478 422.384 480.365 417.467 483.155C412.55 485.946 409.52 489.914 409.115 493.507Z" fill="#B5A4E2"/>
<path d="M422.983 503.737C426.298 503.982 430.349 502.659 433.535 499.983C436.721 497.307 438.351 493.966 438.047 491.221C434.732 490.969 430.681 492.299 427.495 494.968C424.309 497.636 422.679 500.985 422.983 503.737Z" fill="#B5A4E2"/>
<path d="M432.191 506.421C433.423 506.492 434.658 506.343 435.814 505.984C436.971 505.625 438.021 505.064 438.894 504.34C439.766 503.615 440.442 502.743 440.874 501.783C441.306 500.823 441.486 499.797 441.4 498.775C440.168 498.701 438.931 498.848 437.773 499.206C436.615 499.564 435.564 500.125 434.691 500.85C433.817 501.575 433.142 502.448 432.711 503.409C432.279 504.371 432.102 505.398 432.191 506.421Z" fill="#B5A4E2"/>
<path d="M435.156 511.482C436.388 511.553 437.623 511.404 438.779 511.045C439.936 510.687 440.986 510.126 441.858 509.401C442.731 508.676 443.407 507.805 443.839 506.845C444.271 505.885 444.451 504.859 444.365 503.836C443.133 503.766 441.899 503.916 440.743 504.275C439.588 504.635 438.538 505.196 437.666 505.92C436.793 506.644 436.118 507.516 435.685 508.475C435.252 509.434 435.072 510.46 435.156 511.482Z" fill="#B5A4E2"/>
<path d="M479.578 347.685C473.767 367.368 469.251 387.298 466.05 407.388C464.503 417.435 463.177 427.496 462.367 437.596C461.557 447.696 461.041 457.803 461.087 467.91C461.007 486.209 462.546 504.487 465.691 522.598H460.507C457.682 504.465 456.448 486.185 456.814 467.903C456.916 457.711 457.588 447.527 458.564 437.374C459.54 427.221 460.986 417.098 462.689 407.022C466.209 386.873 471.051 366.899 477.193 347.188C480.262 337.34 483.638 327.567 487.322 317.867C491.005 308.173 495.011 298.563 499.587 289.097L501.033 289.594C496.631 299.021 492.801 308.708 489.255 318.364C485.71 328.021 482.478 337.845 479.578 347.685Z" fill="#8968E2"/>
<path d="M467.155 522.598H464.227C472.892 510.366 482.275 498.553 492.137 487.016C503.896 473.254 516.328 459.875 529.514 447.03L529.726 447.183C516.834 460.226 504.817 473.82 493.38 487.704C484.098 499.073 475.277 510.717 467.155 522.598Z" fill="#B5A4E2"/>
<path d="M542.323 429.438C538.106 429.759 533.722 432.091 530.969 435.906C528.216 439.721 527.783 444.018 529.422 447.26C533.64 446.939 538.014 444.607 540.776 440.792C543.539 436.977 543.962 432.68 542.323 429.438Z" fill="#B5A4E2"/>
<path d="M510.978 437.565C509.265 440.34 509.136 444.523 511.107 448.666C513.077 452.81 516.484 455.861 520.011 456.962C521.733 454.179 521.853 449.997 519.891 445.853C517.93 441.709 514.505 438.658 510.978 437.565Z" fill="#B5A4E2"/>
<path d="M509.928 468.17C512.792 470.204 517.663 471.228 522.976 470.624C528.289 470.02 532.636 467.902 534.735 465.334C531.871 463.308 526.991 462.275 521.687 462.879C516.383 463.483 512.018 465.609 509.928 468.17Z" fill="#B5A4E2"/>
<path d="M497.267 481.733C500.13 483.767 505.011 484.791 510.315 484.187C515.619 483.583 519.984 481.496 522.083 478.897C519.219 476.871 514.339 475.839 509.035 476.442C503.731 477.046 499.366 479.141 497.267 481.733Z" fill="#B5A4E2"/>
<path d="M488.675 492.544C491.539 494.57 496.42 495.602 501.724 494.991C507.028 494.379 511.392 492.299 513.483 489.7C510.619 487.674 505.738 486.642 500.434 487.246C495.13 487.85 490.766 489.945 488.675 492.544Z" fill="#B5A4E2"/>
<path d="M479.145 504.463C482.008 506.497 486.889 507.522 492.193 506.918C497.497 506.314 501.862 504.226 503.952 501.627C501.088 499.601 496.208 498.569 490.904 499.173C485.6 499.777 481.235 501.872 479.145 504.463Z" fill="#B5A4E2"/>
<path d="M499.965 449.202C498.243 451.985 498.123 456.159 500.094 460.311C502.064 464.462 505.472 467.497 508.998 468.598C510.72 465.815 510.84 461.641 508.869 457.489C506.899 453.338 503.492 450.318 499.965 449.202Z" fill="#B5A4E2"/>
<path d="M489.44 461.175C487.718 463.958 487.598 468.14 489.559 472.283C491.521 476.427 494.937 479.478 498.464 480.579C500.186 477.796 500.305 473.614 498.344 469.47C496.383 465.326 492.966 462.276 489.44 461.175Z" fill="#B5A4E2"/>
<path d="M479.421 473.254C477.699 476.03 477.579 480.212 479.541 484.363C481.502 488.515 484.918 491.55 488.445 492.651C490.167 489.868 490.287 485.686 488.325 481.542C486.364 477.398 482.939 474.348 479.421 473.254Z" fill="#B5A4E2"/>
<path d="M469.706 485.082C467.984 487.865 467.864 492.039 469.826 496.191C471.787 500.342 475.213 503.385 478.739 504.479C480.461 501.696 480.581 497.521 478.61 493.37C476.64 489.218 473.233 486.183 469.706 485.082Z" fill="#B5A4E2"/>
<path d="M284.59 548.7C133.822 548.7 11.5999 540.769 11.5999 530.986C11.5999 521.202 133.822 513.271 284.59 513.271C435.359 513.271 557.581 521.202 557.581 530.986C557.581 540.769 435.359 548.7 284.59 548.7Z" fill="#892C6D"/>
<path d="M108.38 126.187C106.538 123.71 106.096 112.876 109.107 121.416C112.118 129.956 121.667 134.505 121.363 131.807C121.06 129.108 120.443 123.29 122.192 123.672C123.942 124.054 124.458 133.718 126.796 137.854C129.135 141.99 160.14 157.274 171.264 160.905C179.118 163.467 231.514 140.263 238.972 139.162C254.884 136.753 254.231 170.263 237.702 178.383C226.32 182.649 181.991 185.899 168.17 181.174C140.544 171.708 120.203 150.118 114.255 144.078C108.306 138.038 106.096 133.183 106.335 131.501C106.575 129.819 112.164 137.617 112.164 137.617C112.164 137.617 105.645 127.946 106.704 127.051C107.763 126.157 112.514 134.368 113.389 133.611C114.264 132.854 110.24 128.657 108.38 126.187Z" fill="#FD5E5A"/>
<path d="M258.034 138.382C275.318 137.059 278.615 173.719 261.349 181.242C255.318 183.116 235.299 188.123 219.672 187.779L216.633 149.208C232.711 144.231 253.89 138.672 258.034 138.382Z" fill="#F7ADEB"/>
<path d="M169.689 491.26L182.746 495.847C182.746 495.847 181.485 504.486 180.665 510.931L162.958 506.719C169.726 501.099 169.689 491.26 169.689 491.26Z" fill="#FC7575"/>
<path d="M221.679 253.064L212.471 266.329C212.471 266.329 195.896 376.034 192.848 388.244C189.8 400.454 159.956 499.104 159.956 499.104L182.056 504.853C182.056 504.853 227.066 422.756 225.436 411.456C223.806 400.156 262.445 294.87 262.445 294.87L223.834 252.819L221.679 253.064Z" fill="#47545C"/>
<path d="M228.899 259.54L219.009 261.726L226.449 300.466C226.449 300.466 250.778 380.943 252.509 408.061C254.24 435.18 238.309 510.411 238.309 510.411L266.321 511.39C266.321 511.39 290.576 434.935 284.959 412.763C279.342 390.591 287.528 293.815 287.528 293.815L277.85 257.391L228.899 259.54Z" fill="url(#paint0_linear)"/>
<path d="M232.149 115.736C232.149 115.736 224.184 120.637 212.554 127.326C200.924 134.016 192.572 173.199 193.686 189.255C194.892 206.794 201.679 270.251 201.679 270.251L287.565 266.612C287.565 266.612 266.773 236.902 272.408 207.918C278.044 178.934 280.585 121.355 277.62 120.598C262.749 116.822 232.149 115.736 232.149 115.736Z" fill="url(#paint1_linear)"/>
<path opacity="0.23" d="M241.818 251.023C226.016 243.377 228.816 232.07 236.523 225.67C244.231 219.271 224.948 223.002 224.948 215.494C224.948 207.986 233.89 209.921 251.496 195.302C260.179 188.085 271.174 161.326 278.826 137.885C278.486 157.381 276.128 188.85 272.38 207.933C266.745 236.917 287.537 266.627 287.537 266.627L252.048 268.156C252.067 262.277 250.409 255.174 241.818 251.023Z" fill="url(#paint2_linear)"/>
<path d="M210.38 51.9877C210.38 51.9877 199.865 64.037 198.474 72.0953C197.028 80.3907 195.38 93.6403 195.38 93.6403L199.791 93.5562C199.791 93.5562 203.677 100.812 203.815 105.697C203.953 110.583 213.189 107.349 218.548 107.226C223.907 107.104 235.842 103.014 240.105 88.8772C244.368 74.7407 252.269 49.564 210.38 51.9877Z" fill="#FC7575"/>
<path d="M249.645 114.627C253.052 120.744 245.907 121.822 238.236 123.993C232.923 125.522 227.858 126.669 225.068 127.288C224.848 127.332 224.618 127.334 224.396 127.294C224.175 127.253 223.967 127.171 223.79 127.054C223.612 126.936 223.469 126.787 223.371 126.617C223.274 126.447 223.224 126.261 223.226 126.073C223.291 123.068 222.306 116.745 221.458 111.286C220.933 108.06 220.427 105.17 220.151 103.365C221.219 100.98 229.359 82.8219 228.807 83.9764L230.409 80.276L249.645 114.627Z" fill="#FC7575"/>
<path d="M195.417 43.7611C194.938 44.4645 186.826 59.0139 201.669 64.2128C216.513 69.4118 219.948 61.4375 223.963 66.2465C227.978 71.0555 220.924 79.1139 224.239 83.5253L229.147 84.2058C229.147 84.2058 230.068 81.7822 232.039 81.7439C234.009 81.7057 234.912 94.0302 238.061 93.9767C241.21 93.9232 247.048 83.273 249.857 78.3417C252.665 73.4104 258.365 56.7814 246.984 52.7522C235.602 48.723 230.768 52.0488 230.648 47.9738C230.528 43.8987 225.749 48.2796 225.749 48.2796C225.749 48.2796 222.987 45.2749 224.589 41.7809C226.191 38.2869 212.434 37.3313 209.441 44.3192C206.449 51.3072 200.601 36.1156 195.417 43.7611Z" fill="#210075"/>
<path d="M227.757 77.363C227.757 77.363 227.757 85.4061 230.077 85.3602C232.398 85.3144 237.398 80.6659 236.394 75.8416C235.39 71.0173 228.65 71.7283 227.757 77.363Z" fill="#FC7575"/>
<path d="M229.359 76.4532C229.359 76.4532 228.282 79.672 230.077 81.0941C231.873 82.5161 235.142 78.9533 233.199 76.3768C231.256 73.8003 229.672 74.6107 229.359 76.4532Z" fill="#FD5E5A"/>
<path d="M203.861 74.733L203.539 76.6826C203.539 76.6826 207.627 76.1933 209.929 78.0129C212.231 79.8326 212.554 80.039 212.554 80.039C212.554 80.039 211.228 75.6887 203.861 74.733Z" fill="#210075"/>
<path d="M208.447 80.6353C208.397 80.9251 208.249 81.197 208.019 81.4188C207.789 81.6406 207.487 81.8029 207.15 81.8865C206.812 81.9701 206.452 81.9715 206.114 81.8905C205.775 81.8095 205.471 81.6495 205.239 81.4295C205.006 81.2095 204.855 80.9388 204.802 80.6494C204.75 80.36 204.798 80.0642 204.942 79.7971C205.086 79.5299 205.319 79.3026 205.614 79.1422C205.909 78.9818 206.253 78.895 206.605 78.8922C207.126 78.9255 207.61 79.1265 207.954 79.4523C208.298 79.778 208.475 80.2026 208.447 80.6353Z" fill="#210075"/>
<path d="M205.482 98.6252C206.859 98.6284 208.211 98.3219 209.395 97.7383C209.922 97.4443 210.357 97.0514 210.666 96.5915C210.942 96.1405 211.093 95.6443 211.108 95.1388V95.07C211.128 94.9159 211.22 94.7746 211.365 94.6771C211.51 94.5796 211.696 94.5339 211.882 94.5501C212.067 94.5663 212.238 94.6431 212.355 94.7636C212.472 94.884 212.527 95.0382 212.508 95.1923C212.512 95.2228 212.512 95.2536 212.508 95.2841C212.362 95.929 212.047 96.5396 211.587 97.0731C211.098 97.5827 210.466 97.9844 209.745 98.2429C208.393 98.6919 206.918 98.8241 205.482 98.6252Z" fill="#210075"/>
<path d="M189.376 58.5475C189.284 59.2127 190.15 60.3671 190.647 60.9023C193.299 63.6318 198.318 63.9605 201.697 64.2128C201.255 64.2128 196.808 65.0538 193.023 64.2128C188.944 63.4483 186.467 61.2387 185.712 59.0062L189.376 58.5475Z" fill="#210075"/>
<path d="M231.154 105.33C229.681 106.622 224.607 109.528 221.467 111.278C220.767 106.898 220.114 103.365 220.114 103.365C220.114 103.365 222.876 105.254 228.733 83.8388C228.737 83.882 228.737 83.9255 228.733 83.9687C229.184 85.796 233.236 103.541 231.154 105.33Z" fill="#FD5E5A"/>
<path d="M203.299 102.402C202.936 104.045 202.723 105.709 202.664 107.379C202.71 109.184 208.189 111.08 213.079 109.826C217.968 108.572 224.672 105.751 226.302 104.329C227.932 102.907 228.742 84.1446 228.742 84.1446L224.285 83.5253C224.285 83.5253 222.443 95.7581 220.657 97.3331C218.871 98.9081 203.299 102.402 203.299 102.402Z" fill="#210075"/>
<path d="M206.421 85.0086C206.108 86.3389 207.977 87.761 210.592 88.1891C213.208 88.6172 215.583 87.8756 215.896 86.5377C216.21 85.1997 214.34 83.7853 211.725 83.3648C209.11 82.9443 206.725 83.6783 206.421 85.0086Z" fill="#FD5E5A"/>
<path d="M29.059 174.254L39.9248 178.819L32.8159 185.417L24.5376 180.791L29.059 174.254Z" fill="#FC7575"/>
<path d="M31.4443 174.782C31.4443 174.782 27.761 169.491 22.5399 166.769C17.3188 164.048 14.6115 163.291 13.2303 163.711C11.849 164.132 7.17117 176.709 4.94275 181.403C2.71433 186.097 -0.867748 191.709 0.191212 195.165C1.25017 198.621 5.47678 196.77 8.6905 192.03C11.9042 187.29 24.713 185.7 26.6744 185.08C28.6358 184.461 26.1035 182.022 27.5953 178.834C29.087 175.646 31.4443 174.782 31.4443 174.782Z" fill="#5576BF"/>
<path d="M16.4622 165.401C13.847 178.75 3.57047 189.262 3.16531 193.896C2.41943 189.645 10.1913 179.125 16.4622 165.401Z" fill="#4160BF"/>
<path d="M24.9707 186.25L21.5084 178.727L14.2337 179.943L14.4455 188.276L24.9707 186.25Z" fill="#4160BF"/>
<path d="M133.666 162.243C133.666 162.243 85.6721 216.786 75.6995 222.23C65.7268 227.674 24.9707 186.25 24.9707 186.25L34.6947 175.478L68.6367 190.83L97.0168 148.015L133.666 162.243Z" fill="#5F0400"/>
<path d="M35.5328 193.819L53.7192 200.601L47.4668 209.554L29.3539 201.549L35.5328 193.819Z" fill="#FC7575"/>
<path d="M42.4019 195.906C42.4019 195.906 38.7185 190.616 33.4973 187.886C28.2762 185.157 25.569 184.415 24.1969 184.828C22.8249 185.241 18.1378 197.825 15.9094 202.512C13.681 207.199 10.099 212.818 11.1487 216.312C12.1985 219.806 16.4343 217.918 19.648 213.178C22.8617 208.437 35.6797 206.847 37.6411 206.228C39.6025 205.609 37.061 203.17 38.5619 199.982C40.0629 196.793 42.4019 195.906 42.4019 195.906Z" fill="#719DFF"/>
<path d="M27.4199 186.548C24.8048 199.89 14.5282 210.41 14.1323 215.043C13.3772 210.769 21.149 200.249 27.4199 186.548Z" fill="#4F64EB"/>
<path d="M35.9285 207.367L32.4293 199.852L25.1639 201.067L25.3665 209.401L35.9285 207.367Z" fill="#4F64EB"/>
<path d="M134.348 159.292C134.348 159.292 106.483 222.75 98.739 230.288C90.9948 237.827 34.5108 207.138 34.5108 207.138L43.7191 194.836L81.4734 201.717L94.365 154.047L134.348 159.292Z" fill="#7E0200"/>
<path d="M136.852 18.1716C136.318 14.6853 133.371 12.5522 133.878 11.5506C134.283 10.7861 136.788 11.8335 137.285 13.9743C137.782 16.115 138.648 19.5784 140.968 18.6074C143.289 17.6365 139.569 5.41131 139.523 5.28898C139.145 4.09628 138.823 1.87909 140.13 2.55954C140.747 3.03356 142.175 6.91747 142.69 9.31051C143.611 13.462 143.915 14.777 144.532 15.1058C145.14 14.9758 144.633 12.2923 143.74 6.33641C142.764 -0.200483 145.379 -4.72661 146.235 8.63006C146.466 12.2999 147.156 15.2281 147.589 15.1287C148.934 14.8382 148.584 12.4375 148.51 10.1821C148.436 7.92668 148.639 3.1406 150.425 5.02904C151.134 6.22938 149.293 16.1303 150.72 17.1395C153.022 16.6425 152.562 11.4283 153.004 8.86707C153.326 6.94805 157.783 12.1699 148.538 31.3372C148.523 31.7792 148.461 32.2192 148.353 32.6522C144.939 31.8966 141.461 31.3573 137.948 31.039C140.066 25.993 138.832 31.0696 136.852 18.1716Z" fill="#FC7575"/>
<path d="M127.275 92.7687C123.472 82.4932 133.924 65.7496 131.032 51.2231C128.141 36.6967 137.939 28.0038 137.939 28.0038L148.943 31.062C148.943 31.062 154.983 43.9446 158.041 67.9362C161.098 91.9277 137.635 121.095 127.275 92.7687Z" fill="#AF82FF"/>
<path d="M127.275 92.7687C125.986 84.1752 132.966 72.7605 134.034 60.0078C134.495 53.3562 133.482 51.5442 133.003 48.3025C132.027 40.1448 134.126 33.325 137.976 28.0114C132.561 31.6506 128.012 39.6249 128.316 47.5074V48.616C128.316 49.5564 128.942 52.821 128.988 55.7569C129.264 64.4422 125.305 75.6352 125.36 84.4122C125.406 89.4429 126.631 91.3696 126.76 91.7977C126.889 92.2259 127.064 92.4476 127.275 92.7687Z" fill="#D9C3FF"/>
<path d="M123.316 83.166C123.316 83.166 133.868 83.3265 147.349 100.338C160.831 117.349 131.64 174.209 131.64 174.209C131.64 174.209 83.6738 163.214 86.7033 151.02C89.7329 138.825 106.096 131.501 103.242 119.887C100.387 108.274 94.0792 85.3144 123.316 83.166Z" fill="#7D00A8"/>
<path d="M133.242 38.3711C133.242 38.3711 143.657 35.5728 145.747 44.5639C145.747 44.5639 137.644 40.1525 135.02 42.8054C132.395 45.4584 125.507 47.668 125.507 47.668L133.242 38.3711Z" fill="#21005F"/>
<path d="M131.189 68.7007L130.24 75.1459L123.316 83.166L141.742 103.732L141.852 87.6463L143.491 80.5895L131.189 68.7007Z" fill="#FC7575"/>
<path d="M141.852 87.6462C136.069 86.4383 131.594 81.8357 129.789 73.2727L128.933 67.3551L144.928 75.941L141.852 87.6462Z" fill="#FD5E5A"/>
<path d="M130.231 43.1571C130.231 43.1571 139.983 46.9263 141.512 48.4631C143.04 49.9998 143.298 52.714 146.116 53.9908C148.056 54.7494 150.237 54.9718 152.341 54.6253C152.557 55.1114 152.639 55.6315 152.582 56.1474C152.525 56.6634 152.329 57.1621 152.009 57.6071C150.904 59.0368 153.547 60.6194 154.007 60.7264C154.32 60.8029 149.744 63.2112 149.744 63.2112C149.744 63.2112 152.617 65.3443 155.131 63.9758C155.131 63.9758 155.573 64.1058 155.131 65.329C154.689 66.5523 157.313 71.346 153.611 73.7391C149.91 76.1321 133.592 82.5161 122.478 79.8555C111.363 77.1948 99.5492 69.3888 104.411 59.5185C109.273 49.6481 130.231 43.1571 130.231 43.1571Z" fill="#FC7575"/>
<path d="M142.257 56.1239C142.736 56.8426 143.491 57.2631 143.943 57.049C144.394 56.8349 144.385 56.0933 143.943 55.3746C143.501 54.6559 142.709 54.2354 142.248 54.4495C141.788 54.6636 141.779 55.4052 142.257 56.1239Z" fill="#2D1E66"/>
<path d="M136.778 67.6762C137.773 69.2053 140.407 69.5799 142.663 68.5554C144.919 67.5309 145.932 65.4972 144.937 63.9681C143.943 62.439 141.3 62.0644 139.044 63.0965C136.788 64.1287 135.775 66.1624 136.778 67.6762Z" fill="#FD5E5A"/>
<path d="M109.319 45.7489C109.319 45.7489 121.373 35.611 129.384 34.9612C137.395 34.3113 142.414 41.284 142.414 41.284C142.414 41.284 134.688 38.9903 132.459 41.0546C132.459 41.0546 140.572 42.8819 142.856 48.1496C142.856 48.1496 132.948 46.5135 130.719 48.7689C128.491 51.0243 133.657 56.0857 132.855 59.335C132.054 62.5843 128.481 63.6012 128.813 66.3841C129.144 69.1671 138.703 76.178 134.513 80.406C130.323 84.6339 119.153 82.4167 114.503 79.2439C109.853 76.071 98.9871 68.8689 98.3334 63.3336C97.6796 57.7982 99.7606 55.3976 102.634 52.4923L109.319 45.7489Z" fill="#464A7F"/>
<path d="M131.06 63.6623C131.06 63.6623 126.355 58.7615 123.758 61.9956C121.161 65.2296 130.48 71.1702 133.132 69.06C135.784 66.9499 131.06 63.6623 131.06 63.6623Z" fill="#FC7575"/>
<path d="M127.708 62.7755C127.708 62.7755 132.377 64.4575 131.907 65.6425C131.437 66.8276 129.209 67.057 127.413 65.826C125.618 64.5951 125.019 62.5079 127.708 62.7755Z" fill="#FD5E5A"/>
<path d="M58.3967 41.1311C56.0854 38.1875 56.6747 35.0147 55.5145 34.4871C54.5936 34.0896 53.507 36.2609 54.7962 38.1646C56.0853 40.0683 58.1204 43.1724 55.5697 43.6999C53.019 44.2275 46.3614 32.8816 46.2969 32.7669C45.6615 31.6507 44.179 29.7852 43.7093 31.0084C43.6081 31.7042 45.551 35.4275 47.0152 37.53C49.5751 41.1693 50.3302 42.362 50.0999 42.9583C49.5382 43.1801 47.8347 40.8635 43.8751 35.8404C39.5288 30.328 34.0129 28.2866 43.7462 38.8986C46.4258 41.8192 48.1754 44.4186 47.7702 44.5868C46.5179 45.0838 44.9156 43.0577 43.166 41.3146C41.4164 39.5714 37.5766 36.0162 37.641 38.4169C38.037 39.7166 47.1532 46.2765 46.8494 47.8132C44.7038 48.6619 40.9929 44.4492 38.654 42.7213C36.9228 41.4369 37.5858 47.8132 59.5661 57.4618C59.9214 57.7943 60.3129 58.0989 60.7356 58.3717C62.7481 55.9603 64.98 53.6804 67.4116 51.5519C62.0063 48.7995 66.942 52.0335 58.3967 41.1311Z" fill="#FC7575"/>
<path d="M123.831 92.8681C118.702 83.0054 97.6794 75.8416 88.5908 63.2189C79.5021 50.5962 65.2292 49.22 65.2292 49.22L59.2346 57.4771C59.2346 57.4771 64.6675 70.5433 81.0215 90.4827C97.3756 110.422 137.975 120.033 123.831 92.8681Z" fill="#AF82FF"/>
<path d="M123.831 92.8682C118.122 85.6202 103.914 80.6354 93.1583 71.5143C87.6333 66.6823 86.9979 64.7557 84.8708 62.0262C79.2537 55.2829 72.3474 51.2079 65.2662 49.22C72.1909 49.09 81.8781 52.7522 87.7898 58.8686L88.6002 59.7479C89.3092 60.5124 91.3627 63.2954 93.6555 65.5584C100.212 72.3324 111.943 78.7622 118.739 85.4367C122.625 89.2595 123.187 91.4232 123.426 91.8207C123.666 92.2183 123.721 92.5088 123.831 92.8682Z" fill="#D9C3FF"/>
<path d="M90.1006 97.6572C87.2644 94.8513 85.1465 83.1996 90.3768 92.6035C95.6072 102.007 108.987 107.658 108.186 104.737C107.385 101.816 105.681 95.5623 108.112 96.0822C110.543 96.6021 112.569 107.076 116.252 111.664C119.936 116.251 163.408 135.204 178.74 139.998C189.551 143.377 255.878 122.78 265.639 122.176C286.45 120.884 290.428 156.772 269.626 164.135C255.114 167.797 196.623 167.682 177.543 161.489C139.411 149.096 109.254 124.279 100.46 117.321C91.666 110.364 88.0011 104.974 88.1024 103.17C88.2037 101.365 96.749 110.219 96.749 110.219C96.749 110.219 86.6659 99.3239 87.9458 98.437C89.2258 97.5502 96.7306 106.763 97.7988 106.029C98.8669 105.295 92.9368 100.455 90.1006 97.6572Z" fill="#FC7575"/>
<path d="M265.639 121.034C286.45 119.742 290.428 155.63 269.626 162.993C262.37 164.82 238.254 169.736 219.432 169.392L215.748 131.631C235.187 126.776 260.694 121.34 265.639 121.034Z" fill="#F7ADEB"/>
<path d="M158.979 514.311C154.928 516.604 151.613 512.934 151.613 512.881C155.618 507.223 157.865 502.108 158.814 500.885C159.873 499.517 161.355 497.682 165.048 499.532C168.74 501.382 171.862 505.388 170.425 506.222C169.477 506.772 165.029 510.847 158.979 514.311Z" fill="#9DBAC6"/>
<path d="M184.459 525.358L167.884 525.542C161.07 525.618 150.204 526.414 146.797 526.452C143.39 526.49 130.94 519.945 131.714 517.759C132.487 515.572 143.685 515.993 149.504 513.47C155.324 510.947 162.948 503.531 165.564 503.653C167.755 503.768 178.989 505.809 180.96 507.422C182.931 509.035 186.135 523.913 184.459 525.358Z" fill="#095270"/>
<path d="M134.642 516.375C137.267 516.964 141.806 521.322 148.593 522.79C153.878 523.921 175.426 521.604 184.763 520.496C185.049 522.927 185.021 524.861 184.469 525.335L167.893 525.519C161.079 525.595 150.213 526.391 146.806 526.429C143.399 526.467 130.95 519.922 131.723 517.736C131.944 517.124 133.04 516.711 134.642 516.375Z" fill="#ACFCDD"/>
<path d="M261.432 508.225C261.432 508.225 260.87 517.965 260.511 524.594C260.152 531.223 263.347 536.62 253.411 537.591C243.475 538.562 233.153 535.81 232.361 531.475C231.569 527.14 241.873 517.4 242.122 513.126C242.37 508.852 245.289 507.2 246.855 508.63C248.42 510.06 261.432 508.225 261.432 508.225Z" fill="#095270"/>
<path d="M259.875 534.801C258.107 536.33 255.649 536.46 252.96 536.46C247.241 536.46 234.755 535.749 232.315 531.482C232.268 532.081 232.37 532.68 232.614 533.245C232.858 533.809 233.239 534.325 233.733 534.762C240.492 541.139 258.724 540.206 259.875 534.801Z" fill="#ACFCDD"/>
<path d="M243.448 518.615C243.245 522.744 250.041 526.459 252.527 522.797C252.527 522.736 256.008 513.707 256.321 510.939C256.514 509.28 257.822 506.466 253.282 505.648C248.742 504.83 245.437 506.291 245.345 507.766C245.289 508.745 243.742 512.407 243.448 518.615Z" fill="#9DBAC6"/>
<path d="M253.669 521.176C253.669 521.176 253.964 509.119 256.063 508.707C257.835 508.429 259.63 508.268 261.432 508.225C261.432 508.225 259.673 520.343 257.095 522.285C254.516 524.227 253.669 521.176 253.669 521.176Z" fill="#095270"/>
<path d="M242.38 511.979C242.376 512.055 242.394 512.131 242.43 512.201C242.467 512.271 242.522 512.334 242.592 512.384C248.292 516.207 256.634 512.927 256.993 512.789C257.063 512.761 257.125 512.721 257.177 512.673C257.228 512.624 257.267 512.568 257.292 512.506C257.316 512.445 257.326 512.381 257.321 512.317C257.316 512.252 257.295 512.189 257.26 512.132C257.191 512.015 257.069 511.925 256.921 511.883C256.773 511.84 256.61 511.847 256.469 511.902C256.395 511.902 248.448 515.075 243.347 511.619C243.223 511.539 243.067 511.501 242.911 511.514C242.755 511.527 242.611 511.589 242.509 511.688C242.428 511.77 242.382 511.873 242.38 511.979Z" fill="#ACFCDD"/>
<path d="M241.763 516.834C241.758 516.907 241.775 516.981 241.81 517.048C241.845 517.116 241.898 517.176 241.965 517.224C245.483 519.754 255.465 517.583 255.879 517.491C255.954 517.475 256.025 517.446 256.086 517.407C256.148 517.368 256.2 517.319 256.238 517.263C256.277 517.207 256.303 517.146 256.313 517.082C256.323 517.018 256.318 516.953 256.298 516.891C256.278 516.829 256.244 516.77 256.197 516.719C256.15 516.668 256.091 516.625 256.024 516.593C255.956 516.561 255.882 516.539 255.805 516.531C255.729 516.522 255.65 516.527 255.575 516.543C252.868 517.14 245.271 518.302 242.739 516.482C242.62 516.398 242.467 516.357 242.311 516.367C242.156 516.377 242.012 516.437 241.91 516.536C241.822 516.618 241.77 516.723 241.763 516.834Z" fill="#ACFCDD"/>
<path d="M241.164 520.251C241.16 520.383 241.216 520.512 241.321 520.611C244.083 523.141 254.719 521.513 255.916 521.322C255.993 521.31 256.067 521.285 256.133 521.249C256.198 521.214 256.254 521.167 256.298 521.113C256.342 521.059 256.372 520.998 256.387 520.934C256.402 520.87 256.402 520.804 256.386 520.741C256.371 520.677 256.342 520.617 256.3 520.564C256.257 520.51 256.202 520.464 256.137 520.429C256.073 520.393 256.001 520.369 255.925 520.356C255.849 520.344 255.771 520.345 255.695 520.358C252.61 520.855 244.166 521.75 242.196 519.945C242.084 519.854 241.933 519.803 241.777 519.803C241.62 519.803 241.47 519.854 241.358 519.945C241.251 520.025 241.183 520.133 241.164 520.251Z" fill="#ACFCDD"/>
<path d="M156.061 516.62C156.138 516.537 156.175 516.433 156.162 516.329C155.416 512.652 149.974 512.506 149.716 512.506C149.611 512.512 149.51 512.545 149.429 512.602C149.348 512.658 149.29 512.735 149.265 512.82C149.219 513.003 149.329 513.149 149.523 513.149C149.569 513.149 154.753 513.286 155.416 516.581C155.424 516.618 155.442 516.653 155.469 516.683C155.496 516.712 155.532 516.737 155.572 516.753C155.612 516.769 155.657 516.778 155.702 516.777C155.747 516.776 155.791 516.767 155.831 516.75C155.92 516.725 156 516.68 156.061 516.62Z" fill="#ACFCDD"/>
<path d="M158.694 513.951C158.731 513.912 158.758 513.866 158.774 513.818C158.79 513.769 158.794 513.718 158.786 513.668C158.399 511.314 152.764 510.098 152.525 510.052C152.422 510.041 152.318 510.06 152.229 510.104C152.141 510.149 152.073 510.216 152.036 510.297C151.954 510.473 152.036 510.649 152.202 510.687C153.74 511.008 157.792 512.216 158.068 513.913C158.075 513.951 158.092 513.986 158.118 514.017C158.145 514.048 158.18 514.073 158.22 514.09C158.261 514.107 158.306 514.116 158.352 514.116C158.397 514.116 158.442 514.106 158.482 514.089C158.566 514.059 158.639 514.011 158.694 513.951Z" fill="#ACFCDD"/>
<path d="M160.646 512.071C160.71 512 160.745 511.914 160.748 511.826C160.748 509.647 155.038 507.965 154.385 507.774C154.285 507.76 154.183 507.775 154.095 507.815C154.006 507.855 153.936 507.919 153.897 507.996C153.795 508.171 153.85 508.347 154.025 508.401C155.683 508.875 159.992 510.45 160.029 511.994C160.027 512.031 160.036 512.068 160.055 512.101C160.073 512.135 160.102 512.164 160.137 512.187C160.172 512.209 160.213 512.224 160.257 512.231C160.301 512.237 160.346 512.235 160.388 512.224C160.49 512.193 160.579 512.14 160.646 512.071Z" fill="#ACFCDD"/>
<path d="M255.796 526.047C255.796 526.047 257.969 532.392 256.45 533.539C254.931 534.686 236.192 533.715 236.302 531.008C236.413 528.302 240.998 523.157 242.748 522.82C244.497 522.484 255.796 526.047 255.796 526.047Z" fill="#3A758D"/>
<path d="M386.95 115.866C389.584 105.881 386.554 98.4876 392.77 95.437C398.986 92.3865 407.503 89.7105 415.699 91.5531C417.485 91.9507 408.802 93.6938 408.802 93.6938C408.802 93.6938 405.689 116.76 406.26 122.984C406.831 129.207 405.339 137.793 400.68 138.856C396.021 139.918 390.551 138.267 387.052 136.501C383.552 134.735 384.372 125.858 386.95 115.866Z" fill="#00114D"/>
<path d="M324.104 230.128C331.249 227.628 353.202 195.815 360.016 192.076L368.304 209.5C359.003 214.905 358.073 225.663 345.67 231.397C333.266 237.131 332.778 241.711 329.187 244.532C325.595 247.353 322.824 241.244 319.49 239.57C316.157 237.896 308.182 230.097 307.381 227.383C306.58 224.669 316.967 232.635 324.104 230.128Z" fill="#FC4F4F"/>
<path d="M369.538 160.684C369.538 160.684 392.347 195.088 414.659 185.424L405.054 210.609L380.505 212.543L360.247 175.524L369.538 160.684Z" fill="#630035"/>
<path d="M377.834 142.48C377.834 142.48 364.271 142.243 362.107 139.368C359.943 136.493 360.808 128.71 362.107 124.513C363.405 120.315 367.797 119.161 368.378 116.103C368.958 113.045 363.515 119.413 362.935 117.854C362.355 116.294 366.287 111.844 364.989 109.574C363.69 107.303 363.073 116.76 360.79 116.103C358.506 115.445 363.939 102.983 360.79 103.824C357.641 104.665 359.648 115.078 357.199 115.078C356.186 115.078 357.779 104.596 356.048 104.596C354.316 104.596 355.329 114.719 354.022 114.719C352.005 114.719 352.871 106.454 351.425 107.654C349.979 108.855 351.139 115.919 352.005 122.181C352.871 128.443 344.242 149.376 352.815 152.365C361.388 155.355 381.159 154.185 381.159 154.185L377.834 142.48Z" fill="#D64343"/>
<path d="M419.815 149.491C419.815 149.491 425.874 135.943 401.205 136.195C391.315 136.295 371.978 142.128 371.978 142.128C371.978 142.128 376.95 145.186 375.661 149.491C374.372 153.795 373.737 156.142 373.737 156.142C373.737 156.142 418.738 159.193 419.815 149.491Z" fill="#840046"/>
<path d="M333.607 95.2153C333.607 95.2153 319.978 91.6907 314.131 99.5962C308.284 107.502 317.372 135.171 314.352 141.822C311.332 148.474 307.639 147.388 309.37 141.822C309.37 141.822 303.956 145.232 305.908 149.728C307.86 154.223 311.101 155.477 311.101 155.477H303.956C303.956 155.477 303.09 160.829 311.322 163.382C319.555 165.936 325.604 165.363 329.067 156.02C332.529 146.677 327.336 143.435 327.336 136.432C327.336 136.432 329.067 144.338 333.828 142.549C338.588 140.759 335.992 136.08 333.828 136.08C333.828 136.08 332.529 140.568 331.01 135.362C329.49 130.155 327.722 112.372 327.722 107.876C327.691 106.654 328.199 105.464 329.15 104.53C330.102 103.597 331.431 102.984 332.888 102.807C332.888 102.807 338.367 95.2153 333.607 95.2153Z" fill="#000A40"/>
<path d="M363.93 129.551C363.93 129.551 356.784 145.232 362.41 152.602C368.037 159.973 357.871 157.457 348.34 152.602C345.232 151.122 342.666 148.971 340.913 146.377C339.16 143.783 338.287 140.843 338.386 137.869C338.386 135.171 349.205 119.184 349.205 119.184L363.93 129.551Z" fill="#FC7575"/>
<path d="M349.196 119.184L363.93 129.551C362.815 132.114 361.925 134.741 361.268 137.411C359.275 136.17 357.426 134.777 355.743 133.252C352.751 130.537 349.16 127.326 346.452 123.412C347.99 120.95 349.196 119.184 349.196 119.184Z" fill="#FD5E5A"/>
<path d="M451.87 210.609C451.87 210.609 442.661 226.274 434.899 230.586C427.136 234.898 429.484 220.747 429.484 220.747C429.484 220.747 440.718 202.015 442.781 202.015C444.844 202.015 453.601 202.604 451.87 210.609Z" fill="#FC4F4F"/>
<path d="M412.126 511.933C405.413 510.404 399.235 503.584 397.955 497.896L389.805 498.041C391.978 499.769 388.884 510.717 388.884 510.717L390.726 516.734L412.126 511.933Z" fill="#FC7575"/>
<path d="M416.915 513.302C415.377 512.751 413.765 511.696 412.126 511.933C390.026 515.136 388.921 510.717 388.921 510.717C388.921 510.717 386.923 515.61 386.951 516.711C386.978 517.812 388.304 517.774 394.953 517.659C401.601 517.545 412.006 518.913 417.55 517.491C423.093 516.069 423.351 515.618 416.915 513.302Z" fill="#653870"/>
<path d="M414.687 273.562L398.802 267.231L372.853 321.782L375.201 412.488C368.755 429.606 383.664 501.505 383.664 501.505L399.106 500.167C385.597 439.194 414.687 273.562 414.687 273.562Z" fill="#B97A56"/>
<path d="M328.017 519.311C328.091 522.369 326.848 525.855 325.66 529.105C324.592 532.033 326.581 533.692 326.581 535.611C326.682 539.579 338.782 538.104 338.782 538.104C338.782 538.104 341.544 532.255 339.979 527.629C338.708 523.875 337.53 519.701 337.456 516.926C337.523 515.765 337.667 514.609 337.889 513.462L328.036 513.646C328.144 515.533 328.138 517.424 328.017 519.311Z" fill="#FC7575"/>
<path d="M365.329 380.43L405.082 272.407L376.278 248.637C376.278 248.637 344.969 270.396 339.444 285.947C333.919 301.498 337.511 364.811 337.722 373.198C337.934 381.585 327.096 404.544 322.989 412.09C319.426 418.757 321.47 492.208 322.989 513.775L340.485 514.464C343.57 496.023 359.776 414.109 359.528 404.414C359.325 393.779 365.329 380.43 365.329 380.43Z" fill="#F6A272"/>
<path d="M346.499 273.286C336.268 284.976 333.984 290.107 334.749 341.668C334.914 352.234 335.614 374.215 335.614 374.215C335.679 383.955 319.564 414.904 321.36 411.395C316.59 421.189 321.627 499.012 323.054 513.737C322.842 504.769 321.341 419.896 324.85 412.671C324.942 412.496 338.773 393.871 339.583 367.716C336.213 289.288 338.331 286.2 348.147 274.288C356.094 264.846 366.02 256.535 376.251 248.637C366.168 255.358 354.188 264.846 346.499 273.286Z" fill="#FFF7CF"/>
<path d="M339.988 527.629C339.988 527.713 339.564 536.911 333.422 535.359C329.61 534.403 327.05 531.314 325.65 529.105C324.582 532.033 323.569 534.724 323.615 536.613C323.717 540.581 342.308 541.46 342.308 541.46C342.308 541.46 341.59 532.255 339.988 527.629Z" fill="#653870"/>
<path d="M365.21 88.8313C365.21 88.8313 375.265 90.0775 378.102 93.9844C380.938 97.8912 381.868 107.303 384.612 109.489C386.022 110.702 387.771 111.605 389.704 112.119C389.704 112.119 390.45 113.136 387.789 114.298C385.128 115.461 387.199 116.646 388.866 116.592C390.533 116.539 389.198 119.222 387.945 119.551C388.389 119.64 388.778 119.863 389.034 120.177C389.291 120.491 389.399 120.873 389.336 121.248C389.059 122.571 388.277 122.838 388.277 122.838C388.291 123.986 388.582 125.119 389.133 126.172C390.054 127.777 388.083 132.632 374.915 130.759C374.915 130.759 351.95 126.47 350.679 121.929C349.408 117.387 343.681 101.79 350.909 95.5288C358.138 89.2671 365.21 88.8313 365.21 88.8313Z" fill="#FC7575"/>
<path d="M369.114 114.964C369.114 116.095 371.462 116.974 374.289 116.928C377.116 116.883 379.391 115.912 379.363 114.78C379.335 113.649 377.015 112.762 374.188 112.815C371.361 112.869 369.077 113.824 369.114 114.964Z" fill="#FD5E5A"/>
<path d="M385.385 108.679C385.385 108.679 382.825 110.973 376.287 109.268L385.385 108.679Z" fill="#1B3753"/>
<path d="M380.505 105.124C379.089 104.467 377.518 104.076 375.9 103.977C373.921 103.977 372.116 104.703 372.134 105.307C373.331 104.812 374.656 104.57 375.993 104.604C377.705 104.795 378.534 105.873 379.215 105.858C379.897 105.843 380.505 105.124 380.505 105.124Z" fill="#1B3753"/>
<path d="M361.637 79.649C361.637 79.649 371.517 80.7729 376.287 84.7257C381.057 88.6784 378.58 94.8024 378.58 94.8024C378.58 94.8024 374.51 87.8832 370.836 95.07C367.162 102.257 368.884 105.85 363.046 108.366C357.208 110.881 355.587 104.023 351.996 108.427C348.404 112.83 356.434 124.146 348.064 124.146C339.693 124.146 327.317 117.532 327.317 110.384C327.317 103.235 335.108 104.153 335.108 94.0914C335.108 84.0299 349.767 79.649 361.637 79.649Z" fill="#1B2B80"/>
<path d="M344.703 139.299L338.634 136.807C338.634 136.807 325.678 148.512 322.98 163.765C320.282 179.018 334.307 219.623 334.307 229.868C334.307 240.113 324.352 245.159 328.026 251.275C331.701 257.392 341.36 259.326 336.553 263.317C331.747 267.308 330.485 267.988 332.502 272.3C334.518 276.612 339.454 279.105 339.454 281.62C339.454 284.135 404.419 272.835 418.922 277.147C418.922 277.147 424.548 260.618 418.922 253.79C413.296 246.963 387.107 205.096 384.51 189.102C381.914 173.108 369.363 148.856 359.197 144.72C349.031 140.584 344.703 139.299 344.703 139.299Z" fill="#840046"/>
<path opacity="0.51" d="M334.261 229.868C334.261 219.623 320.19 179.018 322.934 163.765C323.853 159.012 325.618 154.4 328.174 150.079C328.432 151.456 328.515 152.602 328.515 152.602C328.515 152.602 365.127 233.996 385.385 236.703C394.829 238.042 403.945 240.653 412.375 244.432C413.618 246.351 414.76 248.064 415.754 249.517C409.484 250.526 398.654 252.078 391.306 252.078C380.404 252.078 372.89 244.57 372.89 244.57C372.89 244.57 376.849 263.248 372.015 267.262C368.552 270.137 365.486 276.436 364.031 279.808C350.219 281.383 339.445 282.652 339.445 281.628C339.445 279.112 334.509 276.62 332.493 272.308C330.476 267.996 331.737 267.308 336.544 263.324C341.351 259.341 331.701 257.392 328.017 251.283C324.334 245.174 334.261 240.113 334.261 229.868Z" fill="#630035"/>
<path d="M431.648 211.717C431.648 211.717 430.156 222.865 421.381 222.865C412.605 222.865 371.978 217.65 367.401 226.274C362.825 234.899 371.029 244.96 364.003 255.205C356.977 265.45 359.795 270.496 358.478 274.433C357.162 278.371 348.349 272.996 344.408 272.996C340.467 272.996 333.644 270.817 331.259 268.837C328.874 266.857 324.288 262.032 327.75 262.032C331.213 262.032 337.879 268.149 342.484 262.935C347.088 257.72 345.946 221.068 349.408 214.951C352.871 208.835 399.842 195.547 406.97 197.703C414.097 199.859 431.648 211.717 431.648 211.717Z" fill="#FC7575"/>
<path d="M356.213 107.624C356.213 107.624 352.53 101.301 350.9 102.7C349.27 104.099 348.709 113.542 354.584 114.352C360.458 115.162 356.213 107.624 356.213 107.624Z" fill="#FC7575"/>
<path d="M355.983 108.411C355.983 108.411 354.068 104.963 353.101 105.797C352.134 106.63 353.34 112.104 354.666 112.081C355.992 112.058 356.351 110.162 355.983 108.411Z" fill="#FD5E5A"/>
<path d="M381.426 145.591C381.426 145.591 367.862 145.354 365.698 142.48C363.534 139.605 364.399 131.822 365.698 127.625C366.996 123.427 371.398 122.273 371.969 119.214C372.54 116.156 367.107 122.525 366.527 120.965C365.946 119.406 369.795 113.052 368.497 110.774C367.199 108.495 365.689 117.861 364.593 117.487C362.355 116.722 367.484 105.965 364.381 106.936C362.88 107.402 362.107 117.135 361.204 117.135C360.302 117.135 361.508 108.908 359.639 107.708C358.276 106.836 358.92 117.831 357.622 117.831C355.605 117.831 356.471 109.566 355.025 110.766C353.58 111.967 354.74 119.031 355.605 125.293C356.471 131.554 347.843 152.48 356.407 155.477C364.97 158.474 384.759 157.297 384.759 157.297L381.426 145.591Z" fill="#FC4F4F"/>
<path d="M422.596 144.567C422.596 144.567 432.946 170.753 432.946 181.197C432.946 191.64 444.853 197.55 442.468 209.049C440.083 220.548 403.526 231.794 393.765 227.834C384.004 223.874 364.004 199.76 364.004 199.76C364.004 199.76 397.458 203.269 390.708 191.411C383.958 179.553 383.258 161.043 385.468 153.489C387.678 145.936 412.421 132.709 422.596 144.567Z" fill="#EA0062"/>
<path d="M340.909 144.567C340.909 144.567 351.581 147.029 359.086 162.847C366.591 178.666 383.267 213.606 396.684 217.895C410.1 222.184 438.72 212.428 438.72 212.428C438.72 212.428 445.092 218.904 442.781 227.047C440.469 235.189 415.708 244.532 396.481 244.532C377.254 244.532 340.605 208.598 332.815 187.512C325.024 166.425 323.873 142.587 340.909 144.567Z" fill="#9D336B"/>
<path d="M398.747 128.748C398.747 128.748 402.485 140.515 398.194 144.085C393.903 147.656 414.576 149.215 414.576 140.362C414.576 137.235 411.813 123.84 411.813 123.84L398.747 128.748Z" fill="#FC7575"/>
<path d="M413.857 134.643C410.524 135.744 405.063 136.447 400.211 136.501C400.004 133.885 399.514 131.291 398.747 128.748L411.813 123.855C411.813 123.855 413.047 129.758 413.857 134.643Z" fill="#FD5E5A"/>
<path d="M398.157 96.1328C395.284 97.6619 390.155 101.928 390.579 105.537C391.002 109.145 387.439 113.916 388.792 121.355C390.146 128.794 399.143 132.762 401.555 132.426C411.813 131.012 416.445 126.692 420.23 121.623C424.014 116.554 432.91 116.271 423.508 103.274C414.106 90.2763 403.82 93.1663 398.157 96.1328Z" fill="#FC7575"/>
<path d="M398.001 114.314C397.019 115.021 395.832 115.504 394.557 115.713C395.172 116.816 395.886 117.879 396.693 118.893C396.475 118.023 396.192 117.165 395.846 116.325C397.008 116.048 398.044 115.488 398.82 114.718C399.597 113.949 400.078 113.003 400.202 112.005C399.643 112.879 398.897 113.661 398.001 114.314Z" fill="black"/>
<path d="M402.255 112.249C403.507 110.827 405.782 109.589 407.679 109.956C409.576 110.323 409.916 111.86 411.823 112.165C409.824 112.647 408.618 111.064 407.218 110.804C405.819 110.545 403.949 111.363 402.255 112.249Z" fill="black"/>
<path d="M397.467 111.829C396.417 110.789 394.575 109.849 393.12 110.04C391.665 110.231 391.49 111.286 390.026 111.431C391.61 111.837 392.448 110.774 393.553 110.667C394.658 110.56 396.095 111.149 397.467 111.829Z" fill="black"/>
<path d="M405.662 105.269C406.398 105.27 407.123 105.416 407.778 105.695C408.433 105.974 408.998 106.379 409.428 106.875C406.887 105.498 405.542 105.82 404.078 106.676C402.614 107.532 402.384 108.151 401.969 107.731C401.435 107.173 403.839 105.506 405.662 105.269Z" fill="black"/>
<path d="M393.728 106.477C393 106.408 392.181 106.89 391.306 107.242C392.872 105.33 394.676 105.17 396.196 107.41C396.444 107.777 395.892 108.174 395.588 107.823C395.588 107.8 394.152 106.515 393.728 106.477Z" fill="black"/>
<path d="M393.148 116.118C393.148 117.54 391.076 118.687 388.544 118.695C388.479 116.973 388.633 115.251 389.004 113.557C391.315 113.687 393.148 114.788 393.148 116.118Z" fill="#FD5E5A"/>
<path d="M408.848 93.6938C408.848 93.6938 420.773 110.98 413.01 126.692C410.11 132.571 402.503 141.348 402.503 141.348C402.503 141.348 421.841 141.677 426.068 142.671L428.047 127.892L430.589 142.205C430.589 142.205 434.548 143.382 445.589 139.146C456.63 134.911 438.223 121.072 436.252 110.728C434.281 100.384 421.335 86.0713 408.848 93.6938Z" fill="#172866"/>
<path d="M400.008 95.2611C400.008 95.2611 407.301 105.269 417.338 105.269C427.375 105.269 429.014 108.327 429.014 110.728C429.012 111.349 428.805 111.958 428.416 112.489C428.026 113.02 427.47 113.452 426.806 113.739C426.143 114.027 425.397 114.158 424.65 114.119C423.904 114.08 423.184 113.872 422.569 113.519C419.383 111.821 419.171 110.728 419.171 110.728C419.171 110.728 418.001 113.962 420.441 115.988C422.882 118.014 430.414 119.375 432.817 114.008C433.564 112.299 433.818 110.468 433.561 108.663C433.304 106.858 432.541 105.127 431.335 103.61C430.184 102.234 428.876 101.729 427.071 101.11C424.277 100.162 421.63 98.9373 419.189 97.463C417.949 96.7142 416.777 95.8914 415.681 95.0012C414.716 94.0509 413.59 93.2217 412.338 92.5393C411.172 92.0013 409.9 91.6389 408.581 91.469C404.944 91.0714 401.877 92.7305 400.008 95.2611Z" fill="#00114D"/>
<path d="M421.022 105.789C421.443 105.614 421.921 105.554 422.386 105.619C422.851 105.684 423.279 105.869 423.609 106.148C423.91 106.407 424.295 106.586 424.716 106.665C425.138 106.744 425.579 106.72 425.983 106.594C426.388 106.468 426.74 106.246 426.996 105.957C427.251 105.667 427.399 105.322 427.422 104.963C427.451 104.571 427.629 104.196 427.93 103.893C428.231 103.59 428.639 103.373 429.098 103.274C429.516 103.186 429.895 102.998 430.188 102.734C430.481 102.47 430.674 102.141 430.744 101.787C430.815 101.433 430.759 101.07 430.584 100.742C430.41 100.414 430.123 100.135 429.761 99.9402C429.366 99.7234 429.064 99.4083 428.899 99.0401C428.733 98.6719 428.712 98.2697 428.84 97.8912C428.957 97.5459 428.951 97.1795 428.821 96.8371C428.692 96.4947 428.445 96.1912 428.11 95.9638C427.776 95.7364 427.369 95.5951 426.939 95.5572C426.509 95.5193 426.075 95.5865 425.69 95.7505C425.269 95.9255 424.791 95.985 424.326 95.9205C423.861 95.8559 423.433 95.6706 423.103 95.3911C422.802 95.1329 422.418 94.9532 421.996 94.8741C421.574 94.795 421.134 94.8199 420.729 94.9458C420.324 95.0717 419.972 95.293 419.716 95.5827C419.461 95.8723 419.313 96.2176 419.291 96.5762C419.262 96.9679 419.085 97.3419 418.783 97.6443C418.482 97.9466 418.073 98.1616 417.615 98.2582C417.196 98.3476 416.818 98.5362 416.526 98.8009C416.234 99.0657 416.041 99.3952 415.971 99.7492C415.901 100.103 415.956 100.467 416.13 100.795C416.304 101.124 416.59 101.403 416.952 101.599C417.346 101.815 417.647 102.129 417.813 102.495C417.978 102.862 417.999 103.263 417.873 103.641C417.757 103.986 417.764 104.352 417.894 104.694C418.024 105.035 418.271 105.339 418.605 105.566C418.938 105.794 419.344 105.936 419.773 105.975C420.203 106.015 420.636 105.95 421.022 105.789Z" fill="#F14E76"/>
<path d="M423.968 103.526C424.099 103.354 424.293 103.221 424.522 103.146C424.75 103.072 425.002 103.06 425.239 103.113C425.456 103.163 425.686 103.158 425.901 103.1C426.115 103.042 426.304 102.932 426.444 102.786C426.585 102.639 426.67 102.462 426.69 102.275C426.71 102.089 426.663 101.902 426.556 101.737C426.443 101.556 426.403 101.351 426.442 101.15C426.48 100.949 426.594 100.764 426.767 100.621C426.924 100.488 427.031 100.321 427.075 100.138C427.12 99.9565 427.1 99.7677 427.018 99.5948C426.937 99.4219 426.796 99.2723 426.615 99.164C426.433 99.0558 426.217 98.9934 425.994 98.9845C425.748 98.9754 425.512 98.9016 425.32 98.7738C425.128 98.646 424.99 98.4707 424.926 98.2735C424.868 98.0931 424.748 97.9306 424.581 97.8061C424.414 97.6816 424.206 97.6006 423.984 97.5729C423.761 97.5453 423.534 97.5723 423.33 97.6506C423.126 97.7289 422.954 97.8551 422.836 98.0135C422.704 98.1859 422.51 98.3189 422.282 98.3932C422.053 98.4675 421.802 98.4791 421.565 98.4264C421.348 98.3782 421.12 98.3834 420.907 98.4414C420.694 98.4994 420.507 98.6076 420.367 98.7529C420.227 98.8982 420.141 99.0741 420.12 99.2592C420.099 99.4443 420.144 99.6305 420.248 99.7949C420.361 99.9767 420.401 100.184 420.363 100.386C420.325 100.588 420.211 100.774 420.036 100.919C419.88 101.052 419.773 101.219 419.728 101.401C419.684 101.583 419.703 101.772 419.785 101.945C419.867 102.118 420.007 102.267 420.189 102.375C420.371 102.484 420.586 102.546 420.81 102.555C421.056 102.563 421.293 102.636 421.485 102.764C421.677 102.892 421.815 103.068 421.878 103.266C421.939 103.444 422.06 103.604 422.228 103.726C422.395 103.848 422.602 103.928 422.822 103.955C423.043 103.983 423.268 103.957 423.471 103.881C423.675 103.805 423.847 103.681 423.968 103.526Z" fill="#FFF7CF"/>
<path d="M403.59 117.456C403.59 118.633 405.321 119.589 407.458 119.589C409.594 119.589 411.334 118.633 411.334 117.456C411.334 116.279 409.594 115.315 407.458 115.315C405.321 115.315 403.59 116.271 403.59 117.456Z" fill="#FD5E5A"/>
<path d="M397.596 123.687C400.223 123.571 402.833 123.261 405.395 122.762C405.598 122.716 405.708 122.586 405.644 122.456C405.601 122.388 405.53 122.333 405.445 122.303C405.359 122.272 405.264 122.267 405.174 122.288C405.11 122.288 398.581 123.565 396.279 123.106C396.19 123.083 396.095 123.086 396.009 123.116C395.923 123.145 395.852 123.198 395.809 123.267C395.745 123.397 395.809 123.534 396.058 123.572C396.563 123.659 397.079 123.698 397.596 123.687Z" fill="black"/>
<path d="M423.425 152.602C423.425 152.602 429.484 139.055 404.815 139.307C394.925 139.406 369.538 143.076 369.538 143.076C369.538 143.076 377.328 148.29 375.983 152.602C374.639 156.914 374.188 159.254 374.188 159.254C374.188 159.254 422.338 162.305 423.425 152.602Z" fill="#F266A1"/>
<path d="M385.551 140.362C397.9 138.596 419.871 135.775 423.84 145.813C424.629 148.05 424.483 150.443 423.425 152.602C428.95 133.137 385.91 142.319 377.66 142.365L369.538 143.076C374.833 141.99 380.183 141.134 385.551 140.362Z" fill="#FAC2D9"/>
<path d="M435.202 200.211C438.02 199.981 441.169 199.76 443.858 199.446C450.396 198.743 452.809 203.904 452.809 203.904C453.011 205.433 453.462 209.875 450.414 212.252C447.366 214.63 435.248 214.623 433.029 214.194C430.81 213.766 414.815 211.205 415.018 208.262C415.018 208.262 428.83 211.19 429.116 209.859C429.023 209.63 416.905 208.988 414.907 207.428C413.471 206.304 424.005 206.763 428.793 207.229C424.364 206.61 414.06 205.601 414.382 205.012C414.778 204.164 423.241 204.401 428.195 204.615C428.179 204.57 428.157 204.526 428.13 204.485C423.333 204.018 415.717 204.362 416.574 203.001C416.961 202.329 435.193 200.211 435.202 200.211Z" fill="#FC7575"/>
<path d="M433.665 194.958C433.665 194.958 447.799 197.436 448.812 200.219C449.825 203.001 444.208 202.398 444.208 202.398C444.208 202.398 441.344 198.705 438.241 198.705C435.138 198.705 430.875 195.922 433.665 194.958Z" fill="#FC7575"/>
<path d="M356.121 150.615C356.121 150.615 361.038 152.251 359.547 153.489C358.055 154.728 355.78 155.37 355.154 153.489C354.954 152.984 354.94 152.442 355.112 151.93C355.284 151.418 355.635 150.96 356.121 150.615Z" fill="#FD3530"/>
<path d="M447.136 447.183C447.136 447.183 431.804 463.759 434.917 477.108C438.029 490.457 450.912 508.37 452.542 512.162C454.171 515.954 437.504 524.212 437.504 524.212C437.504 524.212 432.384 522.843 430.267 524.601C429.751 525.034 429.362 525.558 429.129 526.135C428.896 526.711 428.825 527.324 428.922 527.927L441.409 531.75C441.409 531.75 465.083 521.635 467.339 517.675C469.595 513.714 458.076 492.208 460.894 487.184C463.711 482.161 492.846 477.031 494.034 463.927C495.222 450.822 456.768 440.149 447.136 447.183Z" fill="#BFB99B"/>
<path d="M408.231 448.024C408.231 448.024 443.306 457.963 444.65 461.022C445.995 464.08 442.809 467.268 446.354 468.667C449.899 470.066 475.949 471.068 475.949 471.068L466.216 451.557L438.674 440.753L408.231 448.024Z" fill="#B56E6E"/>
<path d="M558.298 418.023C553.621 432.626 538.27 442.887 522.312 448.789C516.787 450.807 511.189 452.612 505.489 454.141C503.518 454.684 501.538 455.211 499.54 455.67C498.813 455.83 497.569 456.304 496.777 456.167C494.687 455.784 493.149 443.437 493.766 441.908C494.503 440.142 506.962 449.867 538.528 431.64C549.422 425.348 555.02 415.714 557.635 405.362C558.225 403.099 561.199 404.865 560.987 406.739C560.543 410.565 559.642 414.345 558.298 418.023Z" fill="#FFF7CF"/>
<path d="M558.298 418.023C553.621 432.626 538.27 442.887 522.312 448.789C516.787 450.807 511.189 452.612 505.489 454.141C503.518 454.684 501.538 455.211 499.54 455.67C498.813 455.83 497.569 456.304 496.777 456.167C494.687 455.784 493.149 443.437 493.766 441.908C494.503 440.142 506.962 449.867 538.528 431.64C549.422 425.348 555.02 415.714 557.635 405.362C558.225 403.099 561.199 404.865 560.987 406.739C560.543 410.565 559.642 414.345 558.298 418.023Z" fill="#FFF7CF"/>
<path d="M496.751 453.521C497.524 453.659 498.768 453.185 499.513 453.024C501.512 452.566 503.491 452.038 505.462 451.495C511.162 449.966 516.798 448.154 522.295 446.143C538.253 440.279 553.603 430.019 558.281 415.416C559.442 412.211 560.274 408.929 560.767 405.607C560.955 405.963 561.031 406.352 560.988 406.739C560.548 410.57 559.65 414.355 558.309 418.039C553.622 432.626 538.271 442.887 522.313 448.789C516.788 450.807 511.19 452.612 505.49 454.141C503.519 454.684 501.539 455.211 499.541 455.67C498.814 455.83 497.57 456.304 496.779 456.167C494.882 455.838 493.381 445.249 493.675 442.405C493.998 446.579 495.25 453.261 496.751 453.521Z" fill="black"/>
<path d="M356.517 339.496C356.517 339.496 363.746 338.847 364.897 336.821C366.048 334.795 359.648 322.738 359.648 322.738C359.648 322.738 354.583 325.031 353.874 327.44C353.316 328.982 352.156 330.326 350.578 331.262L356.517 339.496Z" fill="#E25050"/>
<path d="M348.994 319.282C350.21 322.103 365.376 334.061 363.534 336.102C361.692 338.143 353.976 336.018 353.976 336.018C353.976 336.018 353.055 339.535 356.517 339.519C359.98 339.504 363.948 338.258 365.366 336.889C366.785 335.521 361.794 323.319 359.574 321.912C357.355 320.505 347.778 316.461 348.994 319.282Z" fill="black"/>
<path d="M374.206 437.932C374.206 437.932 356.756 441.633 360.394 449.951C360.394 449.951 300.475 449.477 299.048 448.919C297.62 448.361 290.41 444.072 280.631 445.333C270.852 446.595 266.819 440.478 264.701 435.516C264.701 435.516 277.684 434.95 288.707 437.81C299.729 440.669 346.719 437.925 346.719 437.925L361.121 419.812L374.206 437.932Z" fill="#85877E"/>
<path d="M375.21 336.79C375.21 336.79 364.16 331.255 358.975 330.421C353.791 329.588 352.53 329.114 348.515 330.314C344.5 331.515 329.26 323.854 325.954 321.461C322.649 319.068 317.593 327.157 319.103 330.635C320.613 334.114 329.647 336.805 334.583 340.2C334.583 340.2 335.503 343.327 317.952 338.472C315.761 337.868 319.969 346.767 330.384 348.618C342.704 350.804 341.341 356.492 342.594 361.47C343.846 366.447 341.434 377.12 342.594 382.785C343.754 388.451 344.528 393.489 344.528 393.489C344.528 393.489 337.207 438.162 376.913 447.443C416.62 456.725 438.83 447.489 454.586 453.674C470.341 459.859 477.607 492.437 479.098 495.793C480.59 499.15 507.478 523.432 508.731 526.375C509.983 529.319 508.841 546.712 508.841 546.712C508.841 546.712 503.896 548.18 502.976 552.179L513.445 555L518.399 548.692L519.551 518.913C519.551 518.913 492.754 485.594 503.445 462.711C514.136 439.828 475.056 421.242 443.591 412.465C412.126 403.688 389.823 383.756 383.571 364.642C377.318 345.529 375.21 336.79 375.21 336.79Z" fill="#FFF7CF"/>
<path d="M333.929 340.406C328.947 337.142 320.384 334.29 319.104 330.658C320.945 333.931 329.279 336.171 334.445 339.519C334.979 339.863 335.43 340.139 334.988 340.811C333.312 343.388 321.175 339.596 317.953 338.518C319.73 338.831 332.511 341.752 333.929 340.406Z" fill="#172866"/>
<path d="M317.953 338.495C317.465 338.319 317.308 338.755 317.391 339.183C317.642 340.208 318.133 341.182 318.837 342.05C323.929 348.77 330.31 348.296 335.568 350.376C341.02 352.731 341.038 355.842 341.922 360.583C343.432 365.98 341.231 375.285 341.839 381.226C341.977 382.609 344.021 393.458 344.04 393.55V393.443C342.428 405.462 344.399 419.591 351.802 430.822C345.034 419.354 343.266 405.592 344.998 393.55C344.528 390.844 343.487 384.903 343.543 385.232C341.627 373.764 344.648 368.412 342.843 360.437C342.299 357.746 342.198 354.81 339.924 352.448C335.43 347.677 328.754 349.703 322.281 345.016C319.84 343.273 317.041 339.917 317.446 338.655C317.465 338.616 317.493 338.58 317.53 338.551C317.566 338.521 317.609 338.498 317.657 338.483C317.705 338.468 317.755 338.461 317.806 338.463C317.857 338.465 317.907 338.476 317.953 338.495Z" fill="black"/>
<path d="M358.976 330.421C356.905 329.909 354.781 329.559 352.632 329.374C350.403 329.336 348.617 330.07 347.889 330.138C343.957 330.482 332.686 324.863 329.353 323.051C326.019 321.239 325.338 320.092 323.395 320.979C320.301 322.378 317.778 327.929 319.104 330.689C317.99 326.866 322.925 319.985 325.55 321.721C330.027 324.615 334.901 327.058 340.071 328.999C349.436 332.378 347.862 329.97 352.632 329.84C354.722 329.748 356.849 330.215 358.976 330.421Z" fill="black"/>
<path d="M384.446 365.537C389.639 379.459 402.246 391.883 416.408 400.064C426.62 406.012 432.845 408.275 444.033 411.777C468.822 418.903 507.055 434.163 506.162 455.586C505.904 463.101 501.07 465.303 501.926 477.414C502.976 496.084 517.709 515.144 520.03 518.822C519.109 535.145 518.897 539.74 518.418 548.692L519.164 519.02C510.361 507.957 501.272 491.237 500.278 477.498C498.998 462.428 507.718 459.913 503.04 448.491C495.867 431.334 464.089 419.216 443.416 413.184C427.302 408.061 414.124 402.121 401.905 391.264C385.569 376.906 383.433 365.728 379.151 351.316C377.733 346.492 376.389 341.66 375.191 336.79C377.282 344.168 381.987 358.771 384.446 365.537Z" fill="black"/>
<path d="M456.013 454.141L455.092 453.751C440.166 447.428 420.285 455.777 382.015 448.399C373.055 446.564 364.574 444.523 356.232 436.304L355.403 435.455C355.403 435.455 354.15 434.048 354.233 434.132L353.138 432.771L352.106 431.365C349.749 427.825 352.429 431.9 352.106 431.365L353.11 432.779C353.11 432.779 354.261 434.247 354.187 434.155L355.338 435.486L356.572 436.778C358.959 439.177 361.75 441.279 364.86 443.016C369.694 445.715 374.4 447.137 380.643 448.437C419.392 456.427 439.917 447.741 454.881 454.041L455.737 454.423C468.371 461.304 474.734 482.131 478.528 494.31C474.982 482.161 468.988 461.213 456.013 454.141Z" fill="black"/>
<path d="M377.622 429.232C377.622 429.232 358.174 422.886 353.911 426.793C349.647 430.7 350.89 433.123 348.496 432.19C346.102 431.258 295.963 402.373 295.963 402.373L266.837 408.887C266.837 408.887 261.045 414.239 260.676 413.367C260.308 412.496 250.998 408.818 257.997 402.35C264.995 395.882 292.335 390.27 292.335 390.27L344.408 409.2L357.999 405.599C357.999 405.599 378.35 424.499 377.622 429.232Z" fill="#FFF7CF"/>
<path d="M266.69 408.68C279.95 405.408 274.793 406.647 296.156 401.601C296.239 401.647 348.303 431.418 349.334 431.755H349.39C349.39 431.755 349.445 431.755 349.537 431.617C350.09 430.852 350.909 428.559 353.773 426.265C358.165 423.085 372.328 427.381 377.715 429.255C372.982 427.932 358.248 424.155 354.648 427.022C350.32 430.73 351.821 434.239 347.88 432.603L345.872 431.571C333.579 425.042 309.039 410.844 295.889 403.115C281.598 406.089 284.195 405.653 267.058 409.078C266.376 409.674 261.183 414.132 260.769 413.367C260.796 413.49 266.017 409.269 266.69 408.68Z" fill="black"/>
<path d="M371.407 349.397C371.407 349.397 380.956 348.541 382.457 345.865C383.958 343.189 375.551 327.225 375.551 327.225C375.551 327.225 368.856 330.284 367.926 333.434C367.721 334.099 367.412 334.739 367.005 335.337C366.16 336.59 365.73 338.006 365.757 339.441C365.785 340.877 366.269 342.281 367.162 343.51L371.407 349.397Z" fill="#FC7575"/>
<path d="M362.042 360.307C362.042 360.307 362.042 357.83 360.587 356.706C359.132 355.583 352.898 359.566 354.335 361.531C355.771 363.496 357.926 360.996 359.998 361.08C362.07 361.164 362.042 360.307 362.042 360.307Z" fill="black"/>
<path d="M369.943 360.101C369.39 359.915 368.786 359.861 368.198 359.947C367.61 360.032 367.063 360.252 366.619 360.583C365.449 361.454 363.718 362.525 362.595 362.303C360.753 361.951 356.425 362.494 357.18 364.245C357.935 365.996 364.731 363.572 364.74 365.086C364.75 366.6 365.385 366.011 368.47 365.461C371.554 364.91 375.45 364.62 373.765 362.448C372.801 361.367 371.47 360.55 369.943 360.101Z" fill="black"/>
<path d="M366.223 347.28C366.223 347.28 365.974 349.122 361.904 351.645C357.834 354.168 353.478 354.13 356.121 355.911C358.764 357.693 364.234 354.986 367.945 354.505C371.656 354.023 374.022 354.046 372.392 351.79C370.762 349.535 367.853 344.925 366.223 347.28Z" fill="black"/>
<path d="M376.453 354.749L376.103 354.703C374.786 354.558 370.293 354.176 372.42 355.904C374.98 357.914 379.501 355.942 376.453 354.749Z" fill="black"/>
<path d="M379.114 361.63C379.114 361.63 374.97 364.428 378.304 365.246C381.637 366.065 382.77 360.2 379.114 361.63Z" fill="black"/>
<path d="M360.606 332.944C360.422 333.166 358.442 334.817 359.777 336.316C361.112 337.814 362.632 335.796 363.341 334.557C364.05 333.319 361.481 331.882 360.606 332.944Z" fill="black"/>
<path d="M356.305 336.339C356.576 336.217 356.798 336.031 356.943 335.806C357.088 335.58 357.151 335.324 357.122 335.069C357.094 334.815 356.976 334.572 356.783 334.373C356.591 334.173 356.332 334.025 356.038 333.946C355.907 333.894 355.762 333.869 355.617 333.873C355.471 333.876 355.329 333.909 355.201 333.967C355.074 334.025 354.964 334.107 354.883 334.208C354.801 334.308 354.749 334.422 354.731 334.542C354.335 335.689 355.191 336.775 356.305 336.339Z" fill="black"/>
<path d="M356.407 340.445C356.407 340.445 352.465 339.359 353.359 341.438C354.252 343.518 355.882 342.004 356.674 343.831C357.466 345.659 360.569 344.038 360.698 342.654C360.827 341.27 356.407 340.445 356.407 340.445Z" fill="black"/>
<path d="M327.244 327.776C326.901 327.619 326.513 327.544 326.123 327.56C325.732 327.577 325.355 327.683 325.034 327.868C324.772 328.027 324.586 328.257 324.507 328.518C324.428 328.779 324.461 329.055 324.601 329.297C324.758 329.629 325.022 329.918 325.364 330.134C325.705 330.349 326.112 330.482 326.539 330.519C326.966 330.555 327.397 330.493 327.784 330.34C328.171 330.186 328.501 329.947 328.735 329.649C329.371 328.877 328.155 328.166 327.244 327.776Z" fill="black"/>
<path d="M330.715 330.536C330.089 330.628 328.818 331.56 330.402 332.623C331.986 333.686 334.979 329.909 330.715 330.536Z" fill="black"/>
<path d="M332.244 326.4C332.244 326.4 335.927 326.446 335.006 327.722C334.085 328.999 330.494 326.912 332.244 326.4Z" fill="black"/>
<path d="M326.746 333.434C326.746 332.004 324.122 331.851 324.067 333.281C324.076 333.537 324.165 333.787 324.327 334.006C324.488 334.224 324.716 334.404 324.987 334.527C326.046 335.2 326.765 334.351 326.746 333.434Z" fill="black"/>
<path d="M368.221 368.817C368.221 368.817 362.429 371.76 364.602 373.098C366.775 374.436 370.007 371.501 374.86 373.404C379.713 375.308 380.385 370.484 378.24 368.909C376.094 367.334 368.221 368.817 368.221 368.817Z" fill="black"/>
<path d="M374.768 387.625C375.929 387.537 377.041 387.189 377.983 386.618C378.925 386.047 379.663 385.275 380.118 384.383C381.96 381.21 377.153 380.874 373.037 381.6C368.921 382.327 361.158 376.248 362.171 382.678C363.184 389.108 366.83 383.94 369.344 389.781C371.858 395.622 374.768 387.625 374.768 387.625Z" fill="black"/>
<path d="M360.191 380.018C360.191 380.018 362.622 381.86 360.743 385.163C358.865 388.466 359.473 383.856 356.839 382.823C354.206 381.791 359.436 378.267 360.191 380.018Z" fill="black"/>
<path d="M355.523 383.802C355.734 384.291 359.086 385.767 357.364 387.762C355.642 389.758 350.569 388.244 351.839 385.996C352.138 385.377 352.643 384.842 353.296 384.453C353.948 384.065 354.721 383.839 355.523 383.802Z" fill="black"/>
<path d="M363.884 389.789C363.691 389.529 358.672 388.848 360.458 391.18C362.245 393.512 366.582 393.428 363.884 389.789Z" fill="black"/>
<path d="M348.828 371.76C348.828 371.76 352.594 366.195 354.5 369.169C356.406 372.143 356.627 373.282 354.823 375.079C353.018 376.875 347.355 373.58 348.828 371.76Z" fill="black"/>
<path d="M389.004 402.602C388.408 402.609 387.826 402.758 387.328 403.031C386.205 403.635 384.354 404.934 385.1 406.655C386.14 409.063 390.965 409.437 392.227 405.691C393.148 402.916 390.477 402.595 389.004 402.602Z" fill="black"/>
<path d="M381.426 403.917C380.971 403.694 380.436 403.613 379.915 403.688C378.267 403.94 374.63 404.728 375.514 406.746C376.619 409.3 386.785 406.547 381.426 403.917Z" fill="black"/>
<path d="M387.872 409.216C387.872 409.216 387.789 407.48 382.89 408.94C377.991 410.401 375.855 405.446 373.037 408.344C370.219 411.242 374.547 409.789 375.275 414.682C376.002 419.575 379.124 415.707 385.754 417.221C392.384 418.734 399.944 418.299 395.938 414.545C393.671 412.368 390.935 410.561 387.872 409.216Z" fill="black"/>
<path d="M397.605 408.268C396.859 408.038 394.124 411.043 396.389 411.937C398.654 412.832 404.216 410.278 397.605 408.268Z" fill="black"/>
<path d="M405.607 413.474C405.607 413.474 398.166 412.817 399.455 415.806C400.745 418.796 407.264 419.033 409.004 417.511C410.745 415.99 405.607 413.474 405.607 413.474Z" fill="black"/>
<path d="M412.292 410.462C412.292 410.462 404.981 410.225 407.182 411.991C409.382 413.757 418.618 413.964 412.292 410.462Z" fill="black"/>
<path d="M413.323 414.552C413.323 414.552 409.925 418.215 414.244 418.085C418.563 417.955 417.117 414.323 413.323 414.552Z" fill="black"/>
<path d="M426.74 426.395C426.74 426.395 423.388 420.225 419.539 422.358C415.69 424.491 420.34 426.128 416.777 427.183C413.213 428.238 403.885 426.64 402.633 428.826C401.38 431.013 411.841 430.952 415.524 432.397C419.208 433.842 424.198 437.428 426.003 434.255C427.808 431.082 437.91 431.044 432.992 428.138C428.075 425.233 426.74 426.395 426.74 426.395Z" fill="black"/>
<path d="M432.155 433.628C432.155 433.628 425.46 434.018 430.12 435.845C434.779 437.672 436.464 434.507 432.155 433.628Z" fill="black"/>
<path d="M436.676 421.731C437.072 419.95 432.762 416.296 430.874 419.606C428.987 422.917 435.755 425.906 436.676 421.731Z" fill="black"/>
<path d="M441.095 418.314C441.095 418.314 439.318 415.577 437.891 418.085C436.464 420.592 439.908 420.386 441.095 418.314Z" fill="black"/>
<path d="M449.383 418.207C449.383 417.748 444.963 414.17 443.554 416.678C442.145 419.185 448.821 423.559 449.383 418.207Z" fill="black"/>
<path d="M459.522 423.467C459.853 422.435 456.105 416.265 452.229 418.314C448.352 420.363 458.002 428.184 459.522 423.467Z" fill="black"/>
<path d="M452.983 427.504C452.541 427.129 446.169 420.753 444.696 425.409C443.223 430.065 459.503 432.993 452.983 427.504Z" fill="black"/>
<path d="M461.437 432.932C461.437 432.932 458.49 430.638 454.991 434.461C451.492 438.284 444.945 436.694 449.844 440.578C454.742 444.462 471.225 436.778 461.437 432.932Z" fill="black"/>
<path d="M465.12 423.375C465.12 423.375 459.77 426.609 465.829 428.024C471.888 429.438 474.642 423.337 465.12 423.375Z" fill="black"/>
<path d="M474.568 430.126C474.568 430.126 467.864 432.16 471.271 434.385C474.678 436.61 478.638 429.675 474.568 430.126Z" fill="black"/>
<path d="M478.114 436.288C478.114 436.288 468.647 435.027 470.323 438.85C471.999 442.672 484.044 438.628 478.114 436.288Z" fill="black"/>
<path d="M495.425 441.472C494.504 441.097 490.904 431.854 488.519 432.557C486.134 433.261 490.213 438.062 487.865 440.126C485.517 442.191 484.476 446.075 488.022 446.533C491.567 446.992 495.425 441.472 495.425 441.472Z" fill="black"/>
<path d="M497.147 444.599C496.171 444.439 490.996 443.59 492.764 447.657C494.532 451.725 501.944 445.425 497.147 444.599Z" fill="black"/>
<path d="M498.51 452.214C498.51 452.214 501.484 449.92 502.46 452.214C503.436 454.508 503.003 456.526 500.453 457.283C497.902 458.04 498.51 452.214 498.51 452.214Z" fill="black"/>
<path d="M357.235 414.109C357.613 413.451 354.473 408.489 351.71 411.93C348.948 415.37 354.721 418.474 357.235 414.109Z" fill="black"/>
<path d="M361.038 417.87C359.897 417.87 356.701 418.39 357.521 420.286C358.34 422.183 365.523 417.901 361.038 417.87Z" fill="black"/>
<path d="M359.326 405.63C358.905 406.094 358.609 406.628 358.458 407.195C358.308 407.762 358.305 408.349 358.451 408.918C358.709 410.08 359.27 411.464 360.946 410.967C363.469 410.202 364.703 406.073 362.005 405.011C361.547 404.816 361.016 404.772 360.52 404.886C360.024 405.001 359.597 405.266 359.326 405.63Z" fill="black"/>
<path d="M367.245 410.485C367.245 410.485 362.208 411.777 365.311 413.879C368.414 415.982 372.558 410.485 367.245 410.485Z" fill="black"/>
<path d="M335.614 412.412C335.004 412.352 334.386 412.442 333.837 412.672C332.124 413.375 328.616 415.195 331.802 417.389C335.697 420.065 341.158 413.023 335.614 412.412Z" fill="black"/>
<path d="M327.815 405.018C325.402 403.367 322.29 406.303 324.463 408.191C325.596 409.177 327.152 409.942 328.616 408.619C329.859 407.503 329.141 405.928 327.815 405.018Z" fill="black"/>
<path d="M316.268 402.855C315.697 402.503 305.853 401.134 307.299 404.491C308.744 407.847 321.47 406.035 316.268 402.855Z" fill="black"/>
<path d="M318.146 410.332C323.92 414.155 325.2 408.65 322.234 407.488C319.269 406.326 316.129 408.979 318.146 410.332Z" fill="black"/>
<path d="M340.909 408.948C340.682 408.846 340.431 408.785 340.174 408.769C339.916 408.753 339.658 408.782 339.414 408.854C339.171 408.926 338.949 409.039 338.762 409.187C338.576 409.335 338.428 409.514 338.33 409.713C337.861 410.707 337.529 412.006 338.809 412.09C340.54 412.282 342.815 409.911 340.909 408.948Z" fill="black"/>
<path d="M350.292 445.279C350.292 445.279 343.303 442.535 343.469 445.149C343.634 447.764 335.227 445.073 336.231 447.443C337.235 449.813 355.854 451.082 354.878 448.789C353.902 446.495 350.292 445.279 350.292 445.279Z" fill="black"/>
<path d="M336.526 440.6C336.526 440.6 325.909 439.882 329.113 442.206C332.318 444.53 336.858 445.409 338.883 444.805C340.909 444.201 336.526 440.6 336.526 440.6Z" fill="black"/>
<path d="M346.158 441.717C346.158 441.717 350.762 442.573 349.988 440.792C349.215 439.01 343.671 439.4 346.158 441.717Z" fill="black"/>
<path d="M426.804 410.63C425.883 409.422 421.417 405.469 419.797 408.336C418.176 411.204 429.392 414.04 426.804 410.63Z" fill="black"/>
<path d="M482.938 468.224C483.62 468.415 487.892 463.178 484.78 461.954C481.667 460.731 479.955 464.019 479.955 464.019C479.955 464.019 478.472 460.341 476.446 460.96C474.421 461.58 474.338 465.815 482.938 468.224Z" fill="black"/>
<path d="M484.163 457.061C484.163 457.061 477.469 459.164 482.22 460.058C486.972 460.953 487.322 457.084 484.163 457.061Z" fill="black"/>
<path d="M494.541 459.194C494.541 459.194 489.937 459.5 491.263 462.635C492.589 465.769 495.867 465.808 496.963 463.919C498.058 462.031 494.541 459.194 494.541 459.194Z" fill="black"/>
<path d="M496.862 473.323C495.941 472.949 491.337 469.263 493.694 474.791C496.051 480.319 496.862 473.323 496.862 473.323Z" fill="black"/>
<path d="M496.236 484.012C495.204 482.222 498.418 480.877 499.633 482.589C499.93 482.893 500.098 483.27 500.111 483.661C500.125 484.052 499.983 484.436 499.707 484.753C498.749 485.701 496.917 485.197 496.236 484.012Z" fill="black"/>
<path d="M493.768 479.134C493.803 478.911 493.763 478.684 493.652 478.478C493.54 478.273 493.362 478.098 493.137 477.972C492.912 477.847 492.649 477.776 492.378 477.767C492.107 477.759 491.839 477.814 491.604 477.926C490.683 478.354 489.762 479.042 491.456 479.692C492.847 480.242 493.62 479.791 493.768 479.134Z" fill="black"/>
<path d="M495.296 485.319C495.296 485.319 488.979 483.576 491.475 486.374C493.97 489.172 500.048 488.545 495.296 485.319Z" fill="black"/>
<path d="M499.716 477.972C499.639 477.666 499.458 477.385 499.196 477.162C498.933 476.939 498.6 476.782 498.234 476.71C496.622 476.366 493.445 475.854 494.762 477.475C496.245 479.302 500.094 479.677 499.716 477.972Z" fill="black"/>
<path d="M499.007 490.602C499.007 490.602 498.371 488.545 496.438 489.593C494.504 490.64 497.313 493.576 499.007 490.602Z" fill="black"/>
<path d="M506.282 504.249C506.282 504.249 508.713 500.235 504.698 499.203C500.683 498.171 503.915 501.986 502.902 503.791C501.889 505.595 500.674 506.673 502.801 507.812C504.928 508.951 506.282 504.249 506.282 504.249Z" fill="black"/>
<path d="M507.11 507.911C507.11 507.911 504.882 512.736 508.243 513.753C511.604 514.769 509.615 506.222 507.11 507.911Z" fill="black"/>
<path d="M444.043 472.36C444.043 472.36 432.993 472.36 439.696 476.236C446.4 480.112 447.873 472.046 444.043 472.36Z" fill="black"/>
<path d="M454.089 472.26C452.901 472.176 446.372 474.004 450.313 475.548C454.254 477.092 458.306 472.543 454.089 472.26Z" fill="black"/>
<path d="M465.802 473.744C465.802 473.744 453.941 474.309 457.837 478.499C461.732 482.689 472.588 474.455 465.802 473.744Z" fill="black"/>
<path d="M447.882 479.562C447.882 479.562 442.974 487.972 448.15 484.914C453.325 481.856 450.728 477.643 447.882 479.562Z" fill="black"/>
<path d="M444.816 488.866C444.816 488.866 442.578 491.435 447.155 492.383C451.732 493.331 451.069 486.175 444.816 488.866Z" fill="black"/>
<path d="M453.352 500.633C453.352 500.633 450.23 494.677 447.965 496.091C445.7 497.506 447.302 503.722 453.352 500.633Z" fill="black"/>
<path d="M339.85 382.778C339.85 382.778 382.77 380.576 389.013 372.257L391.067 376.279C391.067 376.279 374.298 391.088 342.511 393.313L339.85 382.778Z" fill="#7A321E"/>
<path d="M349.942 334.794C349.769 335.091 349.493 335.338 349.15 335.505C348.807 335.671 348.412 335.749 348.015 335.729C347.618 335.709 347.238 335.592 346.922 335.392C346.605 335.193 346.368 334.919 346.238 334.607C346.109 334.295 346.095 333.959 346.196 333.64C346.298 333.321 346.511 333.034 346.809 332.816C347.107 332.598 347.476 332.458 347.87 332.414C348.264 332.37 348.665 332.424 349.022 332.57C349.258 332.665 349.47 332.798 349.645 332.962C349.819 333.126 349.953 333.316 350.039 333.523C350.125 333.73 350.16 333.949 350.143 334.167C350.127 334.385 350.059 334.598 349.942 334.794Z" fill="#172866"/>
<path d="M326.71 323.097C326.51 322.554 326.277 322.021 326.01 321.499L325.955 321.461C324.205 320.199 321.967 321.858 320.476 324.221C321.53 324.576 322.69 324.659 323.802 324.459C324.914 324.258 325.928 323.783 326.71 323.097Z" fill="black"/>
<path d="M361.471 322.638C363.083 326.369 383.12 342.172 380.689 344.81C378.258 347.448 368.055 344.695 368.055 344.695C368.055 344.695 366.876 349.344 371.407 349.329C375.937 349.313 381.232 347.654 383.111 345.858C384.989 344.061 378.387 327.921 375.449 326.063C372.512 324.206 359.86 318.922 361.471 322.638Z" fill="black"/>
<path d="M511.392 445.149C511.392 445.149 507.111 444.324 507.138 446.335C507.166 448.345 515.352 446.403 511.392 445.149Z" fill="black"/>
<path d="M518.934 443.139C518.934 443.139 511.374 441.082 513.17 444.209C514.965 447.336 522.894 444.698 518.934 443.139Z" fill="black"/>
<path d="M523.4 441.373C522.479 441.633 521.079 445.318 524.229 443.888C527.378 442.458 525.021 440.891 523.4 441.373Z" fill="black"/>
<defs>
<linearGradient id="paint0_linear" x1="245.645" y1="255.606" x2="269.462" y2="577.918" gradientUnits="userSpaceOnUse">
<stop stop-color="#116363"/>
<stop offset="1" stop-color="#2C9D9E"/>
</linearGradient>
<linearGradient id="paint1_linear" x1="188.891" y1="198.684" x2="288.21" y2="181.767" gradientUnits="userSpaceOnUse">
<stop stop-color="#EFCFE8"/>
<stop offset="1" stop-color="#FFE3FC"/>
</linearGradient>
<linearGradient id="paint2_linear" x1="223.825" y1="209.34" x2="289.234" y2="198.019" gradientUnits="userSpaceOnUse">
<stop stop-color="#791962"/>
<stop offset="1" stop-color="#FF3F55"/>
</linearGradient>
</defs>
</svg>
