<svg width="60" height="60" viewBox="0 0 60 60" fill="none" xmlns="http://www.w3.org/2000/svg">
<g clip-path="url(#clip0)">
<path d="M42.167 29.5188C45.0266 25.436 46.5382 20.6432 46.5382 15.6586V4.54503C46.5382 3.99617 46.1568 3.52055 45.6213 3.40107L30.4894 0.0278092C30.3214 -0.00926972 30.1475 -0.00926972 29.9795 0.0278092L14.8481 3.40107C14.312 3.52055 13.9312 3.99617 13.9312 4.54503V15.6586C13.9312 20.6432 15.4427 25.436 18.3023 29.5184C21.162 33.6012 25.1496 36.6595 29.8343 38.3633C29.9634 38.41 30.0994 38.4338 30.2344 38.4338C30.3699 38.4338 30.5059 38.41 30.635 38.3633C35.3197 36.6599 39.3073 33.6012 42.167 29.5188ZM30.2344 36.0104C26.1777 34.4462 22.7221 31.7436 20.2222 28.1739C17.64 24.4875 16.2749 20.1598 16.2749 15.6586V5.48436L30.2344 2.37248L44.1944 5.48436V15.6586C44.1944 20.1594 42.8294 24.4871 40.2471 28.1739C37.7468 31.7436 34.2911 34.4462 30.2344 36.0104Z" fill="#3441B2"/>
<path d="M42.2007 8.02208C42.2007 7.47276 41.8198 6.9976 41.2838 6.87812L30.4897 4.47166C30.3217 4.43458 30.1473 4.43458 29.9793 4.47166L19.1847 6.87812C18.553 7.01912 18.1552 7.64534 18.2962 8.27705C18.4368 8.90877 19.0634 9.30656 19.6947 9.16557L30.2343 6.81633L39.8569 8.96141V15.659C39.8569 19.2652 38.7633 22.7323 36.6947 25.6863C35.0325 28.0593 32.8069 29.9819 30.2343 31.2742C27.6616 29.9824 25.4364 28.0593 23.7743 25.6863C21.9849 23.1315 20.9101 20.1451 20.6665 17.0506C20.6459 16.7924 20.6313 16.5315 20.6226 16.2742C20.6001 15.6269 20.054 15.1211 19.4109 15.1431C18.7641 15.1655 18.2578 15.7079 18.2802 16.3548C18.2903 16.6464 18.3067 16.9425 18.3296 17.2346C18.6061 20.7461 19.8252 24.1336 21.8544 27.0307C23.859 29.8922 26.5863 32.1774 29.7422 33.6386C29.8983 33.7109 30.0667 33.7471 30.2347 33.7471C30.4027 33.7471 30.5707 33.7109 30.7268 33.6386C33.8831 32.1769 36.6105 29.8922 38.6145 27.0307C40.9606 23.6813 42.2011 19.7486 42.2011 15.659V8.02208H42.2007Z" fill="#3441B2"/>
<path d="M26.8959 21.7419C27.101 21.9846 27.3953 22.1333 27.7125 22.1544C27.7386 22.1562 27.7647 22.1571 27.7908 22.1571C28.0801 22.1571 28.3607 22.05 28.5768 21.8546L37.0729 14.1678C37.5526 13.7338 37.5897 12.9927 37.1558 12.5125C36.7213 12.0328 35.9802 11.9957 35.5005 12.4296L27.903 19.303L25.7345 16.7381C25.3171 16.2442 24.5773 16.1819 24.0834 16.5999C23.589 17.0178 23.5272 17.7571 23.9447 18.2515L26.8959 21.7419Z" fill="#3441B2"/>
<path d="M20.3663 38.7837C19.7488 37.9716 18.8511 37.4552 17.839 37.3289C16.8269 37.203 15.8299 37.4827 15.0315 38.1176C14.658 38.4147 14.3563 38.7708 14.1288 39.1631L13.7846 38.7145C13.4788 38.3167 13.3108 37.8214 13.3108 37.3197V26.7477C13.3108 24.5879 11.5534 22.8306 9.39371 22.8306C7.36216 22.8306 5.68582 24.3558 5.49402 26.3778L4.23975 39.6058C4.12942 40.7644 4.45627 41.9139 5.16351 42.8477L15.1245 55.818V58.8282C15.1245 59.4755 15.6491 60.0001 16.2963 60.0001C16.9432 60.0001 17.4682 59.4755 17.4682 58.8282V55.4197C17.4682 55.1616 17.3826 54.9107 17.2256 54.7061L7.02707 41.4263C6.67963 40.9677 6.5185 40.3996 6.57297 39.8269L7.8277 26.5993C7.90461 25.7868 8.57798 25.1743 9.39371 25.1743C10.2616 25.1743 10.967 25.8802 10.967 26.7477V37.3197C10.967 38.335 11.3076 39.3371 11.9261 40.1418L14.3792 43.3366C14.3829 43.3416 14.3865 43.3467 14.3902 43.3517L16.3696 45.9294C16.7642 46.4425 17.4998 46.5391 18.013 46.145C18.5261 45.7508 18.6227 45.0152 18.2286 44.5016L16.2428 41.9157C15.7827 41.3069 15.8926 40.4279 16.4913 39.9519C16.7921 39.7125 17.1679 39.6072 17.5492 39.6543C17.9306 39.7019 18.2688 39.8969 18.5014 40.2027L23.2324 46.4201C24.1635 47.6437 24.6762 49.1644 24.6762 50.702V58.8282C24.6762 59.4755 25.2008 60.0001 25.8481 60.0001C26.4953 60.0001 27.0199 59.4755 27.0199 58.8282V50.702C27.0199 48.6549 26.3374 46.6302 25.0978 45.001L20.3663 38.7837Z" fill="#3441B2"/>
<path d="M55.9008 39.6058L54.646 26.3778C54.4542 24.3558 52.7774 22.8306 50.7463 22.8306C48.5866 22.8306 46.8293 24.5879 46.8293 26.7477V37.3197C46.8293 37.8214 46.6608 38.3167 46.3555 38.7145L46.0108 39.1631C45.7837 38.7713 45.4821 38.4152 45.1085 38.1176C44.3102 37.4827 43.3132 37.203 42.301 37.3289C41.2889 37.4552 40.3913 37.9716 39.7737 38.7837L35.0427 45.001C33.8031 46.6302 33.1201 48.6549 33.1201 50.7025V58.8282C33.1201 59.4755 33.6452 60.0001 34.292 60.0001C34.9393 60.0001 35.4639 59.4755 35.4639 58.8282V50.702C35.4639 49.1644 35.9766 47.6437 36.9077 46.4201L41.6387 40.2027C41.8717 39.8969 42.21 39.7024 42.5913 39.6543C42.9726 39.6072 43.3484 39.7125 43.6492 39.9519C44.2475 40.4279 44.3578 41.3069 43.8973 41.9157L41.9119 44.5016C41.5178 45.0152 41.6144 45.7508 42.1276 46.145C42.6407 46.5391 43.3763 46.4425 43.7709 45.9294L45.7498 43.3517C45.7535 43.3471 45.7567 43.3425 45.7604 43.338L48.2144 40.1423C48.8324 39.3371 49.173 38.335 49.173 37.3197V26.7477C49.173 25.8802 49.8789 25.1743 50.7463 25.1743C51.5621 25.1743 52.2355 25.7868 52.3128 26.5993L53.5675 39.8269C53.6216 40.4 53.4604 40.9677 53.1176 41.4204L42.9144 54.7061C42.7574 54.9107 42.6723 55.162 42.6723 55.4202V58.8282C42.6723 59.4755 43.1969 60.0001 43.8442 60.0001C44.4914 60.0001 45.016 59.4755 45.016 58.8282V55.818L54.9811 42.8417C55.6838 41.9139 56.0106 40.7644 55.9008 39.6058Z" fill="#3441B2"/>
<path d="M18.7894 13.1365C19.2019 13.4116 19.7603 13.3942 20.1531 13.0917C20.5225 12.8069 20.696 12.3098 20.5715 11.8584C20.4383 11.3746 20.0052 11.0194 19.5021 10.9919C19.0041 10.9649 18.534 11.2688 18.3513 11.7316C18.1508 12.2402 18.3362 12.8317 18.7894 13.1365Z" fill="#3441B2"/>
</g>
<defs>
<clipPath id="clip0">
<rect width="60" height="60" fill="white"/>
</clipPath>
</defs>
</svg>
