<svg width="50" height="60" viewBox="0 0 50 60" fill="none" xmlns="http://www.w3.org/2000/svg">
<path d="M6 0C2.68766 0.00328604 0.00330738 2.67032 0 5.96129V53.6516C0.00330738 56.9426 2.68766 59.6096 6 59.6129H48C49.1046 59.6129 50 58.7233 50 57.6258V1.9871C50 0.889654 49.1046 0 48 0H6ZM6 1.9871H48V47.6903H10V5.96129C10 5.41257 9.55229 4.96774 9 4.96774C8.44771 4.96774 8 5.41257 8 5.96129V47.6903H6C4.52199 47.6907 3.09669 48.2359 2 49.2204V5.96129C2 3.7664 3.79086 1.9871 6 1.9871ZM2 53.6516C2 51.4567 3.79086 49.6774 6 49.6774H44V57.6258H6C3.79086 57.6258 2 55.8465 2 53.6516ZM48 57.6258H46V49.6774H48V57.6258Z" fill="#3441B2"/>
<path d="M12 52.6582H7C6.44772 52.6582 6 53.103 6 53.6517C6 54.2005 6.44772 54.6453 7 54.6453H12C12.5523 54.6453 13 54.2005 13 53.6517C13 53.103 12.5523 52.6582 12 52.6582Z" fill="#3441B2"/>
<path d="M41 52.6582H16C15.4477 52.6582 15 53.103 15 53.6517C15 54.2005 15.4477 54.6453 16 54.6453H41C41.5523 54.6453 42 54.2005 42 53.6517C42 53.103 41.5523 52.6582 41 52.6582Z" fill="#3441B2"/>
<path d="M14 36.7613H44C45.1046 36.7613 46 35.8716 46 34.7742V8.94193C46 7.84449 45.1046 6.95483 44 6.95483H14C12.8954 6.95483 12 7.84449 12 8.94193V34.7742C12 35.8716 12.8954 36.7613 14 36.7613ZM14 8.94193H44V34.7742H14V8.94193Z" fill="#3441B2"/>
<path d="M37.7068 21.1554C37.3163 20.7676 36.6833 20.7676 36.2928 21.1554L31.9058 25.5141L24.7588 17.2369C24.5608 17.0173 24.2785 16.8913 23.9818 16.8901C23.6844 16.8954 23.4047 17.0319 23.2188 17.2627L16.2188 25.9563C15.9955 26.2335 15.9381 26.608 16.0681 26.9388C16.198 27.2695 16.4958 27.5062 16.8491 27.5597C17.2023 27.6132 17.5575 27.4754 17.7808 27.1982L24.0268 19.4406L30.4878 26.925L29.2878 28.1172C29.0279 28.3667 28.9236 28.7361 29.0151 29.0835C29.1066 29.4308 29.3797 29.7021 29.7293 29.7931C30.0789 29.884 30.4507 29.7804 30.7018 29.5221L36.9998 23.2628L40.2928 26.5345C40.6852 26.911 41.3089 26.9057 41.6946 26.5224C42.0804 26.1392 42.0858 25.5195 41.7068 25.1296L37.7068 21.1554Z" fill="#3441B2"/>
<path d="M35 18.8776C37.2091 18.8776 39 17.0983 39 14.9034C39 12.7085 37.2091 10.9292 35 10.9292C32.7909 10.9292 31 12.7085 31 14.9034C31 17.0983 32.7909 18.8776 35 18.8776ZM35 12.9163C36.1046 12.9163 37 13.806 37 14.9034C37 16.0008 36.1046 16.8905 35 16.8905C33.8954 16.8905 33 16.0008 33 14.9034C33 13.806 33.8954 12.9163 35 12.9163Z" fill="#3441B2"/>
<path d="M40 38.7485H18C17.4477 38.7485 17 39.1934 17 39.7421C17 40.2908 17.4477 40.7356 18 40.7356H40C40.5523 40.7356 41 40.2908 41 39.7421C41 39.1934 40.5523 38.7485 40 38.7485Z" fill="#3441B2"/>
<path d="M37 42.7227H21C20.4477 42.7227 20 43.1675 20 43.7162C20 44.2649 20.4477 44.7097 21 44.7097H37C37.5523 44.7097 38 44.2649 38 43.7162C38 43.1675 37.5523 42.7227 37 42.7227Z" fill="#3441B2"/>
</svg>
