<svg width="52" height="60" viewBox="0 0 52 60" fill="none" xmlns="http://www.w3.org/2000/svg">
<path d="M27.1928 58.8189C27.1928 59.4697 26.6625 60 26.0105 60C25.3597 60 24.8294 59.4697 24.8294 58.8189C24.8294 58.1681 25.3597 57.6378 26.0105 57.6378C26.6625 57.6378 27.1928 58.1681 27.1928 58.8189ZM1.19675 58.8189V57.3248C1.19675 49.4502 6.5377 45.1559 8.87628 43.7539C12.0524 41.8512 15.4639 40.4126 19.0314 39.4674V37.5657C18.4366 37.0407 17.8928 36.4436 17.4123 35.7782C15.9976 33.8189 14.843 31.6945 13.9727 29.4516C13.1763 29.3428 12.4482 28.836 12.0738 28.0432C11.7167 27.2874 9.24006 22.7059 8.86057 21.8906C7.89856 19.8235 9.15585 17.7814 10.7497 17.124C11.0151 17.0145 11.288 16.9336 11.5655 16.8874C11.3075 15.8316 11.1771 14.7458 11.1771 13.6419C11.1771 6.11965 17.2967 0 24.8188 0C26.1407 0 27.3927 0.50563 28.3439 1.4237C28.3541 1.4335 28.37 1.4335 28.3802 1.4237C29.3317 0.50563 30.5835 0 31.9054 0C37.0178 0 41.1771 4.15925 41.1771 9.27165V11.4226C41.1771 13.2746 40.9228 15.0978 40.4209 16.865C40.7045 16.9109 40.9876 16.985 41.2562 17.1065C43.2173 17.9946 43.9831 20.1892 43.1453 21.8731C42.7447 22.678 40.2892 27.2695 39.9321 28.0257C39.5578 28.8181 38.8299 29.3249 38.034 29.434C37.1633 31.6824 36.0069 33.8117 34.5893 35.7754C34.1083 36.4416 33.5639 37.0395 32.9684 37.5651V39.4672C36.5358 40.4125 39.9474 41.8511 43.1235 43.7538C45.4621 45.1558 50.8031 49.45 50.8031 57.3247V58.8189C50.8031 59.4712 50.2743 60 49.6219 60H31.3279C31.3267 60 31.3267 60 31.3255 60C30.6486 60 30.102 59.4275 30.147 58.7399C30.1881 58.1121 30.7379 57.6378 31.3669 57.6378H48.4408C48.4408 52.6505 45.9381 48.1949 41.9082 45.7807C39.0632 44.0759 36.0165 42.7657 32.8332 41.8775C32.1966 45.0681 29.375 47.4803 25.9999 47.4803C22.6249 47.4803 19.8032 45.0683 19.1666 41.8775C15.984 42.7657 12.9364 44.0759 10.0916 45.7807C6.06171 48.1949 3.55896 52.5133 3.55896 57.6378H20.6968C21.3747 57.6378 21.9206 58.2132 21.874 58.901C21.8313 59.5276 21.2819 60 20.6539 60H2.37785C1.72553 60 1.19675 59.4712 1.19675 58.8189ZM13.5435 13.8228C13.6525 13.6946 15.2823 11.6929 18.0873 11.6929C19.4865 11.6929 20.8303 12.1805 21.8945 13.0498C22.8748 13.8504 24.123 14.2913 25.4093 14.2913C28.4534 14.2913 30.8919 11.843 30.9608 8.7176C30.9749 8.07567 31.4992 7.5626 32.1414 7.56248C32.7834 7.56236 33.308 8.0752 33.3225 8.71713C33.3564 10.2254 34.1682 11.5332 35.4413 12.1303C36.6934 12.7175 37.7411 13.6065 38.5095 14.6943C38.7127 13.6204 38.815 12.5274 38.815 11.4227V9.27165C38.815 5.46177 35.7154 2.3622 31.9055 2.3622C31.1988 2.3622 30.5294 2.63256 30.0207 3.12343C29.0907 4.0213 27.6336 4.02118 26.7035 3.12343C26.1949 2.63256 25.5256 2.3622 24.8188 2.3622C18.5992 2.3622 13.484 7.35709 13.5435 13.8228ZM30.6062 39.1385C27.8097 40.4585 24.5788 40.6109 21.3936 39.139V40.5118C21.3936 43.0518 23.4599 45.1181 25.9999 45.1181C28.5399 45.1181 30.6062 43.0518 30.6062 40.5118V39.1385ZM32.6741 34.3928C34.1391 32.3634 35.3006 30.1416 36.1235 27.788C36.2679 27.375 36.8166 26.7501 37.7462 27.1159C38.1844 26.1824 40.6518 21.62 41.0095 20.8641C41.2819 20.2883 40.9524 19.5384 40.3332 19.2809C39.9834 19.1355 39.5965 19.1609 39.2565 19.3346C38.5234 19.7092 37.6166 19.2672 37.5231 18.457C37.3106 16.6176 36.1183 15.0569 34.4382 14.269C33.589 13.8707 32.8647 13.2866 32.3005 12.5717C31.9451 13.2111 31.4838 13.7864 30.9772 14.3323C28.7355 16.7489 24.0491 17.8233 20.4002 14.8794C18.9767 13.7309 16.8597 13.8 15.5535 15.1251C14.843 15.8459 14.4251 16.8189 14.4251 17.813V18.278C14.4289 19.1456 13.5069 19.7246 12.7142 19.3337C12.3858 19.1718 12.0105 19.1646 11.6727 19.2987C11.137 19.5113 10.6798 20.2048 10.9964 20.8818C11.3507 21.6396 13.8726 26.2703 14.246 27.1161C15.2861 26.7541 15.7743 27.497 15.8823 27.805C16.706 30.153 17.8652 32.3704 19.3275 34.3956C20.9001 36.5735 23.3321 37.8227 25.9995 37.8224C28.668 37.822 31.1008 36.572 32.6741 34.3928ZM51.3936 7.08661V1.1811C51.3936 0.52878 50.8648 0 50.2125 0H44.307C43.6547 0 43.1259 0.52878 43.1259 1.1811C43.1259 1.83343 43.6547 2.3622 44.307 2.3622H49.0314V7.08661C49.0314 7.73894 49.5602 8.26772 50.2125 8.26772C50.8648 8.26772 51.3936 7.73894 51.3936 7.08661ZM51.3936 39.3307V33.4252C51.3936 32.7729 50.8648 32.2441 50.2125 32.2441C49.5602 32.2441 49.0314 32.7729 49.0314 33.4252V38.1496H44.307C43.6547 38.1496 43.1259 38.6784 43.1259 39.3307C43.1259 39.983 43.6547 40.5118 44.307 40.5118H50.2125C50.8648 40.5118 51.3936 39.983 51.3936 39.3307ZM2.96841 7.08661V2.3622H7.69282C8.34514 2.3622 8.87392 1.83343 8.87392 1.1811C8.87392 0.52878 8.34514 0 7.69282 0H1.7873C1.13498 0 0.606201 0.52878 0.606201 1.1811V7.08661C0.606201 7.73894 1.13498 8.26772 1.7873 8.26772C2.43963 8.26772 2.96841 7.73894 2.96841 7.08661ZM8.87392 39.3307C8.87392 38.6784 8.34514 38.1496 7.69282 38.1496H2.96841V33.4252C2.96841 32.7729 2.43963 32.2441 1.7873 32.2441C1.13498 32.2441 0.606201 32.7729 0.606201 33.4252V39.3307C0.606201 39.983 1.13498 40.5118 1.7873 40.5118H7.69282C8.34514 40.5118 8.87392 39.983 8.87392 39.3307Z" fill="#3441B2"/>
</svg>
